<?xml version="1.0" encoding="utf-8" standalone="no"?>
<!DOCTYPE svg PUBLIC "-//W3C//DTD SVG 1.1//EN"
  "http://www.w3.org/Graphics/SVG/1.1/DTD/svg11.dtd">
<svg xmlns:xlink="http://www.w3.org/1999/xlink" width="720pt" height="432pt" viewBox="0 0 720 432" xmlns="http://www.w3.org/2000/svg" version="1.1">
 <metadata>
  <rdf:RDF xmlns:dc="http://purl.org/dc/elements/1.1/" xmlns:cc="http://creativecommons.org/ns#" xmlns:rdf="http://www.w3.org/1999/02/22-rdf-syntax-ns#">
   <cc:Work>
    <dc:type rdf:resource="http://purl.org/dc/dcmitype/StillImage"/>
    <dc:date>2025-05-22T23:07:25.889205</dc:date>
    <dc:format>image/svg+xml</dc:format>
    <dc:creator>
     <cc:Agent>
      <dc:title>Matplotlib v3.9.3, https://matplotlib.org/</dc:title>
     </cc:Agent>
    </dc:creator>
   </cc:Work>
  </rdf:RDF>
 </metadata>
 <defs>
  <style type="text/css">*{stroke-linejoin: round; stroke-linecap: butt}</style>
 </defs>
 <g id="figure_1">
  <g id="patch_1">
   <path d="M 0 432 
L 720 432 
L 720 0 
L 0 0 
z
" style="fill: #ffffff"/>
  </g>
  <g id="axes_1">
   <g id="patch_2">
    <path d="M 50.137685 386.728 
L 709.2 386.728 
L 709.2 26.88 
L 50.137685 26.88 
z
" style="fill: #ffffff"/>
   </g>
   <g id="PathCollection_1">
    <defs>
     <path id="m3472d9c09f" d="M 0 2.738613 
C 0.726289 2.738613 1.422928 2.450055 1.936492 1.936492 
C 2.450055 1.422928 2.738613 0.726289 2.738613 0 
C 2.738613 -0.726289 2.450055 -1.422928 1.936492 -1.936492 
C 1.422928 -2.450055 0.726289 -2.738613 0 -2.738613 
C -0.726289 -2.738613 -1.422928 -2.450055 -1.936492 -1.936492 
C -2.450055 -1.422928 -2.738613 -0.726289 -2.738613 0 
C -2.738613 0.726289 -2.450055 1.422928 -1.936492 1.936492 
C -1.422928 2.450055 -0.726289 2.738613 0 2.738613 
z
" style="stroke: #ff0000"/>
    </defs>
    <g clip-path="url(#pc49fad8348)">
     <use xlink:href="#m3472d9c09f" x="559.327218" y="187.807046" style="fill: #ff0000; stroke: #ff0000"/>
    </g>
   </g>
   <g id="PathCollection_2">
    <defs>
     <path id="mc17106582b" d="M 0 -2.738613 
L -2.738613 2.738613 
L 2.738613 2.738613 
z
" style="stroke: #ff0000"/>
    </defs>
    <g clip-path="url(#pc49fad8348)">
     <use xlink:href="#mc17106582b" x="559.327218" y="164.889855" style="fill: #ff0000; stroke: #ff0000"/>
    </g>
   </g>
   <g id="PathCollection_3">
    <defs>
     <path id="m2ffe094e7e" d="M 0 2.738613 
C 0.726289 2.738613 1.422928 2.450055 1.936492 1.936492 
C 2.450055 1.422928 2.738613 0.726289 2.738613 0 
C 2.738613 -0.726289 2.450055 -1.422928 1.936492 -1.936492 
C 1.422928 -2.450055 0.726289 -2.738613 0 -2.738613 
C -0.726289 -2.738613 -1.422928 -2.450055 -1.936492 -1.936492 
C -2.450055 -1.422928 -2.738613 -0.726289 -2.738613 0 
C -2.738613 0.726289 -2.450055 1.422928 -1.936492 1.936492 
C -1.422928 2.450055 -0.726289 2.738613 0 2.738613 
z
" style="stroke: #008000"/>
    </defs>
    <g clip-path="url(#pc49fad8348)">
     <use xlink:href="#m2ffe094e7e" x="554.037159" y="188.324458" style="fill: #008000; stroke: #008000"/>
    </g>
   </g>
   <g id="PathCollection_4">
    <defs>
     <path id="m74b31824bc" d="M 0 -2.738613 
L -2.738613 2.738613 
L 2.738613 2.738613 
z
" style="stroke: #008000"/>
    </defs>
    <g clip-path="url(#pc49fad8348)">
     <use xlink:href="#m74b31824bc" x="554.037159" y="161.385127" style="fill: #008000; stroke: #008000"/>
    </g>
   </g>
   <g id="PathCollection_5">
    <defs>
     <path id="mc12c0ab35f" d="M 0 2.738613 
C 0.726289 2.738613 1.422928 2.450055 1.936492 1.936492 
C 2.450055 1.422928 2.738613 0.726289 2.738613 0 
C 2.738613 -0.726289 2.450055 -1.422928 1.936492 -1.936492 
C 1.422928 -2.450055 0.726289 -2.738613 0 -2.738613 
C -0.726289 -2.738613 -1.422928 -2.450055 -1.936492 -1.936492 
C -2.450055 -1.422928 -2.738613 -0.726289 -2.738613 0 
C -2.738613 0.726289 -2.450055 1.422928 -1.936492 1.936492 
C -1.422928 2.450055 -0.726289 2.738613 0 2.738613 
z
" style="stroke: #0000ff"/>
    </defs>
    <g clip-path="url(#pc49fad8348)">
     <use xlink:href="#mc12c0ab35f" x="521.720911" y="189.356216" style="fill: #0000ff; stroke: #0000ff"/>
    </g>
   </g>
   <g id="PathCollection_6">
    <defs>
     <path id="m65f6fb8f1c" d="M 0 -2.738613 
L -2.738613 2.738613 
L 2.738613 2.738613 
z
" style="stroke: #0000ff"/>
    </defs>
    <g clip-path="url(#pc49fad8348)">
     <use xlink:href="#m65f6fb8f1c" x="521.720911" y="158.84103" style="fill: #0000ff; stroke: #0000ff"/>
    </g>
   </g>
   <g id="matplotlib.axis_1">
    <g id="xtick_1">
     <g id="line2d_1">
      <path d="M 80.095063 386.728 
L 80.095063 26.88 
" clip-path="url(#pc49fad8348)" style="fill: none; stroke-dasharray: 1.85,0.8; stroke-dashoffset: 0; stroke: #b0b0b0; stroke-width: 0.5"/>
     </g>
     <g id="line2d_2">
      <defs>
       <path id="mac16b7cf62" d="M 0 0 
L 0 3.5 
" style="stroke: #000000; stroke-width: 0.8"/>
      </defs>
      <g>
       <use xlink:href="#mac16b7cf62" x="80.095063" y="386.728" style="stroke: #000000; stroke-width: 0.8"/>
      </g>
     </g>
     <g id="text_1">
      <!-- $\mathdefault{10^{-1}}$ -->
      <g transform="translate(68.345063 401.326437) scale(0.1 -0.1)">
       <defs>
        <path id="DejaVuSans-31" d="M 794 531 
L 1825 531 
L 1825 4091 
L 703 3866 
L 703 4441 
L 1819 4666 
L 2450 4666 
L 2450 531 
L 3481 531 
L 3481 0 
L 794 0 
L 794 531 
z
" transform="scale(0.015625)"/>
        <path id="DejaVuSans-30" d="M 2034 4250 
Q 1547 4250 1301 3770 
Q 1056 3291 1056 2328 
Q 1056 1369 1301 889 
Q 1547 409 2034 409 
Q 2525 409 2770 889 
Q 3016 1369 3016 2328 
Q 3016 3291 2770 3770 
Q 2525 4250 2034 4250 
z
M 2034 4750 
Q 2819 4750 3233 4129 
Q 3647 3509 3647 2328 
Q 3647 1150 3233 529 
Q 2819 -91 2034 -91 
Q 1250 -91 836 529 
Q 422 1150 422 2328 
Q 422 3509 836 4129 
Q 1250 4750 2034 4750 
z
" transform="scale(0.015625)"/>
        <path id="DejaVuSans-2212" d="M 678 2272 
L 4684 2272 
L 4684 1741 
L 678 1741 
L 678 2272 
z
" transform="scale(0.015625)"/>
       </defs>
       <use xlink:href="#DejaVuSans-31" transform="translate(0 0.684375)"/>
       <use xlink:href="#DejaVuSans-30" transform="translate(63.623047 0.684375)"/>
       <use xlink:href="#DejaVuSans-2212" transform="translate(128.203125 38.965625) scale(0.7)"/>
       <use xlink:href="#DejaVuSans-31" transform="translate(186.855469 38.965625) scale(0.7)"/>
      </g>
     </g>
    </g>
    <g id="xtick_2">
     <g id="line2d_3">
      <path d="M 279.810916 386.728 
L 279.810916 26.88 
" clip-path="url(#pc49fad8348)" style="fill: none; stroke-dasharray: 1.85,0.8; stroke-dashoffset: 0; stroke: #b0b0b0; stroke-width: 0.5"/>
     </g>
     <g id="line2d_4">
      <g>
       <use xlink:href="#mac16b7cf62" x="279.810916" y="386.728" style="stroke: #000000; stroke-width: 0.8"/>
      </g>
     </g>
     <g id="text_2">
      <!-- $\mathdefault{10^{0}}$ -->
      <g transform="translate(271.010916 401.326437) scale(0.1 -0.1)">
       <use xlink:href="#DejaVuSans-31" transform="translate(0 0.765625)"/>
       <use xlink:href="#DejaVuSans-30" transform="translate(63.623047 0.765625)"/>
       <use xlink:href="#DejaVuSans-30" transform="translate(128.203125 39.046875) scale(0.7)"/>
      </g>
     </g>
    </g>
    <g id="xtick_3">
     <g id="line2d_5">
      <path d="M 479.526769 386.728 
L 479.526769 26.88 
" clip-path="url(#pc49fad8348)" style="fill: none; stroke-dasharray: 1.85,0.8; stroke-dashoffset: 0; stroke: #b0b0b0; stroke-width: 0.5"/>
     </g>
     <g id="line2d_6">
      <g>
       <use xlink:href="#mac16b7cf62" x="479.526769" y="386.728" style="stroke: #000000; stroke-width: 0.8"/>
      </g>
     </g>
     <g id="text_3">
      <!-- $\mathdefault{10^{1}}$ -->
      <g transform="translate(470.726769 401.326437) scale(0.1 -0.1)">
       <use xlink:href="#DejaVuSans-31" transform="translate(0 0.684375)"/>
       <use xlink:href="#DejaVuSans-30" transform="translate(63.623047 0.684375)"/>
       <use xlink:href="#DejaVuSans-31" transform="translate(128.203125 38.965625) scale(0.7)"/>
      </g>
     </g>
    </g>
    <g id="xtick_4">
     <g id="line2d_7">
      <path d="M 679.242622 386.728 
L 679.242622 26.88 
" clip-path="url(#pc49fad8348)" style="fill: none; stroke-dasharray: 1.85,0.8; stroke-dashoffset: 0; stroke: #b0b0b0; stroke-width: 0.5"/>
     </g>
     <g id="line2d_8">
      <g>
       <use xlink:href="#mac16b7cf62" x="679.242622" y="386.728" style="stroke: #000000; stroke-width: 0.8"/>
      </g>
     </g>
     <g id="text_4">
      <!-- $\mathdefault{10^{2}}$ -->
      <g transform="translate(670.442622 401.326437) scale(0.1 -0.1)">
       <defs>
        <path id="DejaVuSans-32" d="M 1228 531 
L 3431 531 
L 3431 0 
L 469 0 
L 469 531 
Q 828 903 1448 1529 
Q 2069 2156 2228 2338 
Q 2531 2678 2651 2914 
Q 2772 3150 2772 3378 
Q 2772 3750 2511 3984 
Q 2250 4219 1831 4219 
Q 1534 4219 1204 4116 
Q 875 4013 500 3803 
L 500 4441 
Q 881 4594 1212 4672 
Q 1544 4750 1819 4750 
Q 2544 4750 2975 4387 
Q 3406 4025 3406 3419 
Q 3406 3131 3298 2873 
Q 3191 2616 2906 2266 
Q 2828 2175 2409 1742 
Q 1991 1309 1228 531 
z
" transform="scale(0.015625)"/>
       </defs>
       <use xlink:href="#DejaVuSans-31" transform="translate(0 0.765625)"/>
       <use xlink:href="#DejaVuSans-30" transform="translate(63.623047 0.765625)"/>
       <use xlink:href="#DejaVuSans-32" transform="translate(128.203125 39.046875) scale(0.7)"/>
      </g>
     </g>
    </g>
    <g id="xtick_5">
     <g id="line2d_9">
      <path d="M 60.740597 386.728 
L 60.740597 26.88 
" clip-path="url(#pc49fad8348)" style="fill: none; stroke-dasharray: 1.85,0.8; stroke-dashoffset: 0; stroke: #b0b0b0; stroke-width: 0.5"/>
     </g>
     <g id="line2d_10">
      <defs>
       <path id="mf36dd76c25" d="M 0 0 
L 0 2 
" style="stroke: #000000; stroke-width: 0.6"/>
      </defs>
      <g>
       <use xlink:href="#mf36dd76c25" x="60.740597" y="386.728" style="stroke: #000000; stroke-width: 0.6"/>
      </g>
     </g>
    </g>
    <g id="xtick_6">
     <g id="line2d_11">
      <path d="M 70.956566 386.728 
L 70.956566 26.88 
" clip-path="url(#pc49fad8348)" style="fill: none; stroke-dasharray: 1.85,0.8; stroke-dashoffset: 0; stroke: #b0b0b0; stroke-width: 0.5"/>
     </g>
     <g id="line2d_12">
      <g>
       <use xlink:href="#mf36dd76c25" x="70.956566" y="386.728" style="stroke: #000000; stroke-width: 0.6"/>
      </g>
     </g>
    </g>
    <g id="xtick_7">
     <g id="line2d_13">
      <path d="M 140.215525 386.728 
L 140.215525 26.88 
" clip-path="url(#pc49fad8348)" style="fill: none; stroke-dasharray: 1.85,0.8; stroke-dashoffset: 0; stroke: #b0b0b0; stroke-width: 0.5"/>
     </g>
     <g id="line2d_14">
      <g>
       <use xlink:href="#mf36dd76c25" x="140.215525" y="386.728" style="stroke: #000000; stroke-width: 0.6"/>
      </g>
     </g>
    </g>
    <g id="xtick_8">
     <g id="line2d_15">
      <path d="M 175.383741 386.728 
L 175.383741 26.88 
" clip-path="url(#pc49fad8348)" style="fill: none; stroke-dasharray: 1.85,0.8; stroke-dashoffset: 0; stroke: #b0b0b0; stroke-width: 0.5"/>
     </g>
     <g id="line2d_16">
      <g>
       <use xlink:href="#mf36dd76c25" x="175.383741" y="386.728" style="stroke: #000000; stroke-width: 0.6"/>
      </g>
     </g>
    </g>
    <g id="xtick_9">
     <g id="line2d_17">
      <path d="M 200.335988 386.728 
L 200.335988 26.88 
" clip-path="url(#pc49fad8348)" style="fill: none; stroke-dasharray: 1.85,0.8; stroke-dashoffset: 0; stroke: #b0b0b0; stroke-width: 0.5"/>
     </g>
     <g id="line2d_18">
      <g>
       <use xlink:href="#mf36dd76c25" x="200.335988" y="386.728" style="stroke: #000000; stroke-width: 0.6"/>
      </g>
     </g>
    </g>
    <g id="xtick_10">
     <g id="line2d_19">
      <path d="M 219.690453 386.728 
L 219.690453 26.88 
" clip-path="url(#pc49fad8348)" style="fill: none; stroke-dasharray: 1.85,0.8; stroke-dashoffset: 0; stroke: #b0b0b0; stroke-width: 0.5"/>
     </g>
     <g id="line2d_20">
      <g>
       <use xlink:href="#mf36dd76c25" x="219.690453" y="386.728" style="stroke: #000000; stroke-width: 0.6"/>
      </g>
     </g>
    </g>
    <g id="xtick_11">
     <g id="line2d_21">
      <path d="M 235.504204 386.728 
L 235.504204 26.88 
" clip-path="url(#pc49fad8348)" style="fill: none; stroke-dasharray: 1.85,0.8; stroke-dashoffset: 0; stroke: #b0b0b0; stroke-width: 0.5"/>
     </g>
     <g id="line2d_22">
      <g>
       <use xlink:href="#mf36dd76c25" x="235.504204" y="386.728" style="stroke: #000000; stroke-width: 0.6"/>
      </g>
     </g>
    </g>
    <g id="xtick_12">
     <g id="line2d_23">
      <path d="M 248.874539 386.728 
L 248.874539 26.88 
" clip-path="url(#pc49fad8348)" style="fill: none; stroke-dasharray: 1.85,0.8; stroke-dashoffset: 0; stroke: #b0b0b0; stroke-width: 0.5"/>
     </g>
     <g id="line2d_24">
      <g>
       <use xlink:href="#mf36dd76c25" x="248.874539" y="386.728" style="stroke: #000000; stroke-width: 0.6"/>
      </g>
     </g>
    </g>
    <g id="xtick_13">
     <g id="line2d_25">
      <path d="M 260.45645 386.728 
L 260.45645 26.88 
" clip-path="url(#pc49fad8348)" style="fill: none; stroke-dasharray: 1.85,0.8; stroke-dashoffset: 0; stroke: #b0b0b0; stroke-width: 0.5"/>
     </g>
     <g id="line2d_26">
      <g>
       <use xlink:href="#mf36dd76c25" x="260.45645" y="386.728" style="stroke: #000000; stroke-width: 0.6"/>
      </g>
     </g>
    </g>
    <g id="xtick_14">
     <g id="line2d_27">
      <path d="M 270.67242 386.728 
L 270.67242 26.88 
" clip-path="url(#pc49fad8348)" style="fill: none; stroke-dasharray: 1.85,0.8; stroke-dashoffset: 0; stroke: #b0b0b0; stroke-width: 0.5"/>
     </g>
     <g id="line2d_28">
      <g>
       <use xlink:href="#mf36dd76c25" x="270.67242" y="386.728" style="stroke: #000000; stroke-width: 0.6"/>
      </g>
     </g>
    </g>
    <g id="xtick_15">
     <g id="line2d_29">
      <path d="M 339.931378 386.728 
L 339.931378 26.88 
" clip-path="url(#pc49fad8348)" style="fill: none; stroke-dasharray: 1.85,0.8; stroke-dashoffset: 0; stroke: #b0b0b0; stroke-width: 0.5"/>
     </g>
     <g id="line2d_30">
      <g>
       <use xlink:href="#mf36dd76c25" x="339.931378" y="386.728" style="stroke: #000000; stroke-width: 0.6"/>
      </g>
     </g>
    </g>
    <g id="xtick_16">
     <g id="line2d_31">
      <path d="M 375.099594 386.728 
L 375.099594 26.88 
" clip-path="url(#pc49fad8348)" style="fill: none; stroke-dasharray: 1.85,0.8; stroke-dashoffset: 0; stroke: #b0b0b0; stroke-width: 0.5"/>
     </g>
     <g id="line2d_32">
      <g>
       <use xlink:href="#mf36dd76c25" x="375.099594" y="386.728" style="stroke: #000000; stroke-width: 0.6"/>
      </g>
     </g>
    </g>
    <g id="xtick_17">
     <g id="line2d_33">
      <path d="M 400.051841 386.728 
L 400.051841 26.88 
" clip-path="url(#pc49fad8348)" style="fill: none; stroke-dasharray: 1.85,0.8; stroke-dashoffset: 0; stroke: #b0b0b0; stroke-width: 0.5"/>
     </g>
     <g id="line2d_34">
      <g>
       <use xlink:href="#mf36dd76c25" x="400.051841" y="386.728" style="stroke: #000000; stroke-width: 0.6"/>
      </g>
     </g>
    </g>
    <g id="xtick_18">
     <g id="line2d_35">
      <path d="M 419.406307 386.728 
L 419.406307 26.88 
" clip-path="url(#pc49fad8348)" style="fill: none; stroke-dasharray: 1.85,0.8; stroke-dashoffset: 0; stroke: #b0b0b0; stroke-width: 0.5"/>
     </g>
     <g id="line2d_36">
      <g>
       <use xlink:href="#mf36dd76c25" x="419.406307" y="386.728" style="stroke: #000000; stroke-width: 0.6"/>
      </g>
     </g>
    </g>
    <g id="xtick_19">
     <g id="line2d_37">
      <path d="M 435.220057 386.728 
L 435.220057 26.88 
" clip-path="url(#pc49fad8348)" style="fill: none; stroke-dasharray: 1.85,0.8; stroke-dashoffset: 0; stroke: #b0b0b0; stroke-width: 0.5"/>
     </g>
     <g id="line2d_38">
      <g>
       <use xlink:href="#mf36dd76c25" x="435.220057" y="386.728" style="stroke: #000000; stroke-width: 0.6"/>
      </g>
     </g>
    </g>
    <g id="xtick_20">
     <g id="line2d_39">
      <path d="M 448.590392 386.728 
L 448.590392 26.88 
" clip-path="url(#pc49fad8348)" style="fill: none; stroke-dasharray: 1.85,0.8; stroke-dashoffset: 0; stroke: #b0b0b0; stroke-width: 0.5"/>
     </g>
     <g id="line2d_40">
      <g>
       <use xlink:href="#mf36dd76c25" x="448.590392" y="386.728" style="stroke: #000000; stroke-width: 0.6"/>
      </g>
     </g>
    </g>
    <g id="xtick_21">
     <g id="line2d_41">
      <path d="M 460.172303 386.728 
L 460.172303 26.88 
" clip-path="url(#pc49fad8348)" style="fill: none; stroke-dasharray: 1.85,0.8; stroke-dashoffset: 0; stroke: #b0b0b0; stroke-width: 0.5"/>
     </g>
     <g id="line2d_42">
      <g>
       <use xlink:href="#mf36dd76c25" x="460.172303" y="386.728" style="stroke: #000000; stroke-width: 0.6"/>
      </g>
     </g>
    </g>
    <g id="xtick_22">
     <g id="line2d_43">
      <path d="M 470.388273 386.728 
L 470.388273 26.88 
" clip-path="url(#pc49fad8348)" style="fill: none; stroke-dasharray: 1.85,0.8; stroke-dashoffset: 0; stroke: #b0b0b0; stroke-width: 0.5"/>
     </g>
     <g id="line2d_44">
      <g>
       <use xlink:href="#mf36dd76c25" x="470.388273" y="386.728" style="stroke: #000000; stroke-width: 0.6"/>
      </g>
     </g>
    </g>
    <g id="xtick_23">
     <g id="line2d_45">
      <path d="M 539.647231 386.728 
L 539.647231 26.88 
" clip-path="url(#pc49fad8348)" style="fill: none; stroke-dasharray: 1.85,0.8; stroke-dashoffset: 0; stroke: #b0b0b0; stroke-width: 0.5"/>
     </g>
     <g id="line2d_46">
      <g>
       <use xlink:href="#mf36dd76c25" x="539.647231" y="386.728" style="stroke: #000000; stroke-width: 0.6"/>
      </g>
     </g>
    </g>
    <g id="xtick_24">
     <g id="line2d_47">
      <path d="M 574.815447 386.728 
L 574.815447 26.88 
" clip-path="url(#pc49fad8348)" style="fill: none; stroke-dasharray: 1.85,0.8; stroke-dashoffset: 0; stroke: #b0b0b0; stroke-width: 0.5"/>
     </g>
     <g id="line2d_48">
      <g>
       <use xlink:href="#mf36dd76c25" x="574.815447" y="386.728" style="stroke: #000000; stroke-width: 0.6"/>
      </g>
     </g>
    </g>
    <g id="xtick_25">
     <g id="line2d_49">
      <path d="M 599.767694 386.728 
L 599.767694 26.88 
" clip-path="url(#pc49fad8348)" style="fill: none; stroke-dasharray: 1.85,0.8; stroke-dashoffset: 0; stroke: #b0b0b0; stroke-width: 0.5"/>
     </g>
     <g id="line2d_50">
      <g>
       <use xlink:href="#mf36dd76c25" x="599.767694" y="386.728" style="stroke: #000000; stroke-width: 0.6"/>
      </g>
     </g>
    </g>
    <g id="xtick_26">
     <g id="line2d_51">
      <path d="M 619.12216 386.728 
L 619.12216 26.88 
" clip-path="url(#pc49fad8348)" style="fill: none; stroke-dasharray: 1.85,0.8; stroke-dashoffset: 0; stroke: #b0b0b0; stroke-width: 0.5"/>
     </g>
     <g id="line2d_52">
      <g>
       <use xlink:href="#mf36dd76c25" x="619.12216" y="386.728" style="stroke: #000000; stroke-width: 0.6"/>
      </g>
     </g>
    </g>
    <g id="xtick_27">
     <g id="line2d_53">
      <path d="M 634.93591 386.728 
L 634.93591 26.88 
" clip-path="url(#pc49fad8348)" style="fill: none; stroke-dasharray: 1.85,0.8; stroke-dashoffset: 0; stroke: #b0b0b0; stroke-width: 0.5"/>
     </g>
     <g id="line2d_54">
      <g>
       <use xlink:href="#mf36dd76c25" x="634.93591" y="386.728" style="stroke: #000000; stroke-width: 0.6"/>
      </g>
     </g>
    </g>
    <g id="xtick_28">
     <g id="line2d_55">
      <path d="M 648.306245 386.728 
L 648.306245 26.88 
" clip-path="url(#pc49fad8348)" style="fill: none; stroke-dasharray: 1.85,0.8; stroke-dashoffset: 0; stroke: #b0b0b0; stroke-width: 0.5"/>
     </g>
     <g id="line2d_56">
      <g>
       <use xlink:href="#mf36dd76c25" x="648.306245" y="386.728" style="stroke: #000000; stroke-width: 0.6"/>
      </g>
     </g>
    </g>
    <g id="xtick_29">
     <g id="line2d_57">
      <path d="M 659.888156 386.728 
L 659.888156 26.88 
" clip-path="url(#pc49fad8348)" style="fill: none; stroke-dasharray: 1.85,0.8; stroke-dashoffset: 0; stroke: #b0b0b0; stroke-width: 0.5"/>
     </g>
     <g id="line2d_58">
      <g>
       <use xlink:href="#mf36dd76c25" x="659.888156" y="386.728" style="stroke: #000000; stroke-width: 0.6"/>
      </g>
     </g>
    </g>
    <g id="xtick_30">
     <g id="line2d_59">
      <path d="M 670.104126 386.728 
L 670.104126 26.88 
" clip-path="url(#pc49fad8348)" style="fill: none; stroke-dasharray: 1.85,0.8; stroke-dashoffset: 0; stroke: #b0b0b0; stroke-width: 0.5"/>
     </g>
     <g id="line2d_60">
      <g>
       <use xlink:href="#mf36dd76c25" x="670.104126" y="386.728" style="stroke: #000000; stroke-width: 0.6"/>
      </g>
     </g>
    </g>
    <g id="text_5">
     <!-- Arithmetic Intensity (Instructions / Byte) -->
     <g transform="translate(279.134467 415.004563) scale(0.1 -0.1)">
      <defs>
       <path id="DejaVuSans-41" d="M 2188 4044 
L 1331 1722 
L 3047 1722 
L 2188 4044 
z
M 1831 4666 
L 2547 4666 
L 4325 0 
L 3669 0 
L 3244 1197 
L 1141 1197 
L 716 0 
L 50 0 
L 1831 4666 
z
" transform="scale(0.015625)"/>
       <path id="DejaVuSans-72" d="M 2631 2963 
Q 2534 3019 2420 3045 
Q 2306 3072 2169 3072 
Q 1681 3072 1420 2755 
Q 1159 2438 1159 1844 
L 1159 0 
L 581 0 
L 581 3500 
L 1159 3500 
L 1159 2956 
Q 1341 3275 1631 3429 
Q 1922 3584 2338 3584 
Q 2397 3584 2469 3576 
Q 2541 3569 2628 3553 
L 2631 2963 
z
" transform="scale(0.015625)"/>
       <path id="DejaVuSans-69" d="M 603 3500 
L 1178 3500 
L 1178 0 
L 603 0 
L 603 3500 
z
M 603 4863 
L 1178 4863 
L 1178 4134 
L 603 4134 
L 603 4863 
z
" transform="scale(0.015625)"/>
       <path id="DejaVuSans-74" d="M 1172 4494 
L 1172 3500 
L 2356 3500 
L 2356 3053 
L 1172 3053 
L 1172 1153 
Q 1172 725 1289 603 
Q 1406 481 1766 481 
L 2356 481 
L 2356 0 
L 1766 0 
Q 1100 0 847 248 
Q 594 497 594 1153 
L 594 3053 
L 172 3053 
L 172 3500 
L 594 3500 
L 594 4494 
L 1172 4494 
z
" transform="scale(0.015625)"/>
       <path id="DejaVuSans-68" d="M 3513 2113 
L 3513 0 
L 2938 0 
L 2938 2094 
Q 2938 2591 2744 2837 
Q 2550 3084 2163 3084 
Q 1697 3084 1428 2787 
Q 1159 2491 1159 1978 
L 1159 0 
L 581 0 
L 581 4863 
L 1159 4863 
L 1159 2956 
Q 1366 3272 1645 3428 
Q 1925 3584 2291 3584 
Q 2894 3584 3203 3211 
Q 3513 2838 3513 2113 
z
" transform="scale(0.015625)"/>
       <path id="DejaVuSans-6d" d="M 3328 2828 
Q 3544 3216 3844 3400 
Q 4144 3584 4550 3584 
Q 5097 3584 5394 3201 
Q 5691 2819 5691 2113 
L 5691 0 
L 5113 0 
L 5113 2094 
Q 5113 2597 4934 2840 
Q 4756 3084 4391 3084 
Q 3944 3084 3684 2787 
Q 3425 2491 3425 1978 
L 3425 0 
L 2847 0 
L 2847 2094 
Q 2847 2600 2669 2842 
Q 2491 3084 2119 3084 
Q 1678 3084 1418 2786 
Q 1159 2488 1159 1978 
L 1159 0 
L 581 0 
L 581 3500 
L 1159 3500 
L 1159 2956 
Q 1356 3278 1631 3431 
Q 1906 3584 2284 3584 
Q 2666 3584 2933 3390 
Q 3200 3197 3328 2828 
z
" transform="scale(0.015625)"/>
       <path id="DejaVuSans-65" d="M 3597 1894 
L 3597 1613 
L 953 1613 
Q 991 1019 1311 708 
Q 1631 397 2203 397 
Q 2534 397 2845 478 
Q 3156 559 3463 722 
L 3463 178 
Q 3153 47 2828 -22 
Q 2503 -91 2169 -91 
Q 1331 -91 842 396 
Q 353 884 353 1716 
Q 353 2575 817 3079 
Q 1281 3584 2069 3584 
Q 2775 3584 3186 3129 
Q 3597 2675 3597 1894 
z
M 3022 2063 
Q 3016 2534 2758 2815 
Q 2500 3097 2075 3097 
Q 1594 3097 1305 2825 
Q 1016 2553 972 2059 
L 3022 2063 
z
" transform="scale(0.015625)"/>
       <path id="DejaVuSans-63" d="M 3122 3366 
L 3122 2828 
Q 2878 2963 2633 3030 
Q 2388 3097 2138 3097 
Q 1578 3097 1268 2742 
Q 959 2388 959 1747 
Q 959 1106 1268 751 
Q 1578 397 2138 397 
Q 2388 397 2633 464 
Q 2878 531 3122 666 
L 3122 134 
Q 2881 22 2623 -34 
Q 2366 -91 2075 -91 
Q 1284 -91 818 406 
Q 353 903 353 1747 
Q 353 2603 823 3093 
Q 1294 3584 2113 3584 
Q 2378 3584 2631 3529 
Q 2884 3475 3122 3366 
z
" transform="scale(0.015625)"/>
       <path id="DejaVuSans-20" transform="scale(0.015625)"/>
       <path id="DejaVuSans-49" d="M 628 4666 
L 1259 4666 
L 1259 0 
L 628 0 
L 628 4666 
z
" transform="scale(0.015625)"/>
       <path id="DejaVuSans-6e" d="M 3513 2113 
L 3513 0 
L 2938 0 
L 2938 2094 
Q 2938 2591 2744 2837 
Q 2550 3084 2163 3084 
Q 1697 3084 1428 2787 
Q 1159 2491 1159 1978 
L 1159 0 
L 581 0 
L 581 3500 
L 1159 3500 
L 1159 2956 
Q 1366 3272 1645 3428 
Q 1925 3584 2291 3584 
Q 2894 3584 3203 3211 
Q 3513 2838 3513 2113 
z
" transform="scale(0.015625)"/>
       <path id="DejaVuSans-73" d="M 2834 3397 
L 2834 2853 
Q 2591 2978 2328 3040 
Q 2066 3103 1784 3103 
Q 1356 3103 1142 2972 
Q 928 2841 928 2578 
Q 928 2378 1081 2264 
Q 1234 2150 1697 2047 
L 1894 2003 
Q 2506 1872 2764 1633 
Q 3022 1394 3022 966 
Q 3022 478 2636 193 
Q 2250 -91 1575 -91 
Q 1294 -91 989 -36 
Q 684 19 347 128 
L 347 722 
Q 666 556 975 473 
Q 1284 391 1588 391 
Q 1994 391 2212 530 
Q 2431 669 2431 922 
Q 2431 1156 2273 1281 
Q 2116 1406 1581 1522 
L 1381 1569 
Q 847 1681 609 1914 
Q 372 2147 372 2553 
Q 372 3047 722 3315 
Q 1072 3584 1716 3584 
Q 2034 3584 2315 3537 
Q 2597 3491 2834 3397 
z
" transform="scale(0.015625)"/>
       <path id="DejaVuSans-79" d="M 2059 -325 
Q 1816 -950 1584 -1140 
Q 1353 -1331 966 -1331 
L 506 -1331 
L 506 -850 
L 844 -850 
Q 1081 -850 1212 -737 
Q 1344 -625 1503 -206 
L 1606 56 
L 191 3500 
L 800 3500 
L 1894 763 
L 2988 3500 
L 3597 3500 
L 2059 -325 
z
" transform="scale(0.015625)"/>
       <path id="DejaVuSans-28" d="M 1984 4856 
Q 1566 4138 1362 3434 
Q 1159 2731 1159 2009 
Q 1159 1288 1364 580 
Q 1569 -128 1984 -844 
L 1484 -844 
Q 1016 -109 783 600 
Q 550 1309 550 2009 
Q 550 2706 781 3412 
Q 1013 4119 1484 4856 
L 1984 4856 
z
" transform="scale(0.015625)"/>
       <path id="DejaVuSans-75" d="M 544 1381 
L 544 3500 
L 1119 3500 
L 1119 1403 
Q 1119 906 1312 657 
Q 1506 409 1894 409 
Q 2359 409 2629 706 
Q 2900 1003 2900 1516 
L 2900 3500 
L 3475 3500 
L 3475 0 
L 2900 0 
L 2900 538 
Q 2691 219 2414 64 
Q 2138 -91 1772 -91 
Q 1169 -91 856 284 
Q 544 659 544 1381 
z
M 1991 3584 
L 1991 3584 
z
" transform="scale(0.015625)"/>
       <path id="DejaVuSans-6f" d="M 1959 3097 
Q 1497 3097 1228 2736 
Q 959 2375 959 1747 
Q 959 1119 1226 758 
Q 1494 397 1959 397 
Q 2419 397 2687 759 
Q 2956 1122 2956 1747 
Q 2956 2369 2687 2733 
Q 2419 3097 1959 3097 
z
M 1959 3584 
Q 2709 3584 3137 3096 
Q 3566 2609 3566 1747 
Q 3566 888 3137 398 
Q 2709 -91 1959 -91 
Q 1206 -91 779 398 
Q 353 888 353 1747 
Q 353 2609 779 3096 
Q 1206 3584 1959 3584 
z
" transform="scale(0.015625)"/>
       <path id="DejaVuSans-2f" d="M 1625 4666 
L 2156 4666 
L 531 -594 
L 0 -594 
L 1625 4666 
z
" transform="scale(0.015625)"/>
       <path id="DejaVuSans-42" d="M 1259 2228 
L 1259 519 
L 2272 519 
Q 2781 519 3026 730 
Q 3272 941 3272 1375 
Q 3272 1813 3026 2020 
Q 2781 2228 2272 2228 
L 1259 2228 
z
M 1259 4147 
L 1259 2741 
L 2194 2741 
Q 2656 2741 2882 2914 
Q 3109 3088 3109 3444 
Q 3109 3797 2882 3972 
Q 2656 4147 2194 4147 
L 1259 4147 
z
M 628 4666 
L 2241 4666 
Q 2963 4666 3353 4366 
Q 3744 4066 3744 3513 
Q 3744 3084 3544 2831 
Q 3344 2578 2956 2516 
Q 3422 2416 3680 2098 
Q 3938 1781 3938 1306 
Q 3938 681 3513 340 
Q 3088 0 2303 0 
L 628 0 
L 628 4666 
z
" transform="scale(0.015625)"/>
       <path id="DejaVuSans-29" d="M 513 4856 
L 1013 4856 
Q 1481 4119 1714 3412 
Q 1947 2706 1947 2009 
Q 1947 1309 1714 600 
Q 1481 -109 1013 -844 
L 513 -844 
Q 928 -128 1133 580 
Q 1338 1288 1338 2009 
Q 1338 2731 1133 3434 
Q 928 4138 513 4856 
z
" transform="scale(0.015625)"/>
      </defs>
      <use xlink:href="#DejaVuSans-41"/>
      <use xlink:href="#DejaVuSans-72" x="68.408203"/>
      <use xlink:href="#DejaVuSans-69" x="109.521484"/>
      <use xlink:href="#DejaVuSans-74" x="137.304688"/>
      <use xlink:href="#DejaVuSans-68" x="176.513672"/>
      <use xlink:href="#DejaVuSans-6d" x="239.892578"/>
      <use xlink:href="#DejaVuSans-65" x="337.304688"/>
      <use xlink:href="#DejaVuSans-74" x="398.828125"/>
      <use xlink:href="#DejaVuSans-69" x="438.037109"/>
      <use xlink:href="#DejaVuSans-63" x="465.820312"/>
      <use xlink:href="#DejaVuSans-20" x="520.800781"/>
      <use xlink:href="#DejaVuSans-49" x="552.587891"/>
      <use xlink:href="#DejaVuSans-6e" x="582.080078"/>
      <use xlink:href="#DejaVuSans-74" x="645.458984"/>
      <use xlink:href="#DejaVuSans-65" x="684.667969"/>
      <use xlink:href="#DejaVuSans-6e" x="746.191406"/>
      <use xlink:href="#DejaVuSans-73" x="809.570312"/>
      <use xlink:href="#DejaVuSans-69" x="861.669922"/>
      <use xlink:href="#DejaVuSans-74" x="889.453125"/>
      <use xlink:href="#DejaVuSans-79" x="928.662109"/>
      <use xlink:href="#DejaVuSans-20" x="987.841797"/>
      <use xlink:href="#DejaVuSans-28" x="1019.628906"/>
      <use xlink:href="#DejaVuSans-49" x="1058.642578"/>
      <use xlink:href="#DejaVuSans-6e" x="1088.134766"/>
      <use xlink:href="#DejaVuSans-73" x="1151.513672"/>
      <use xlink:href="#DejaVuSans-74" x="1203.613281"/>
      <use xlink:href="#DejaVuSans-72" x="1242.822266"/>
      <use xlink:href="#DejaVuSans-75" x="1283.935547"/>
      <use xlink:href="#DejaVuSans-63" x="1347.314453"/>
      <use xlink:href="#DejaVuSans-74" x="1402.294922"/>
      <use xlink:href="#DejaVuSans-69" x="1441.503906"/>
      <use xlink:href="#DejaVuSans-6f" x="1469.287109"/>
      <use xlink:href="#DejaVuSans-6e" x="1530.46875"/>
      <use xlink:href="#DejaVuSans-73" x="1593.847656"/>
      <use xlink:href="#DejaVuSans-20" x="1645.947266"/>
      <use xlink:href="#DejaVuSans-2f" x="1677.734375"/>
      <use xlink:href="#DejaVuSans-20" x="1711.425781"/>
      <use xlink:href="#DejaVuSans-42" x="1743.212891"/>
      <use xlink:href="#DejaVuSans-79" x="1811.816406"/>
      <use xlink:href="#DejaVuSans-74" x="1870.996094"/>
      <use xlink:href="#DejaVuSans-65" x="1910.205078"/>
      <use xlink:href="#DejaVuSans-29" x="1971.728516"/>
     </g>
    </g>
   </g>
   <g id="matplotlib.axis_2">
    <g id="ytick_1">
     <g id="line2d_61">
      <path d="M 50.137685 382.061968 
L 709.2 382.061968 
" clip-path="url(#pc49fad8348)" style="fill: none; stroke-dasharray: 1.85,0.8; stroke-dashoffset: 0; stroke: #b0b0b0; stroke-width: 0.5"/>
     </g>
     <g id="line2d_62">
      <defs>
       <path id="md5a7ef385c" d="M 0 0 
L -3.5 0 
" style="stroke: #000000; stroke-width: 0.8"/>
      </defs>
      <g>
       <use xlink:href="#md5a7ef385c" x="50.137685" y="382.061968" style="stroke: #000000; stroke-width: 0.8"/>
      </g>
     </g>
     <g id="text_6">
      <!-- $\mathdefault{10^{1}}$ -->
      <g transform="translate(25.537685 385.861186) scale(0.1 -0.1)">
       <use xlink:href="#DejaVuSans-31" transform="translate(0 0.684375)"/>
       <use xlink:href="#DejaVuSans-30" transform="translate(63.623047 0.684375)"/>
       <use xlink:href="#DejaVuSans-31" transform="translate(128.203125 38.965625) scale(0.7)"/>
      </g>
     </g>
    </g>
    <g id="ytick_2">
     <g id="line2d_63">
      <path d="M 50.137685 273.017119 
L 709.2 273.017119 
" clip-path="url(#pc49fad8348)" style="fill: none; stroke-dasharray: 1.85,0.8; stroke-dashoffset: 0; stroke: #b0b0b0; stroke-width: 0.5"/>
     </g>
     <g id="line2d_64">
      <g>
       <use xlink:href="#md5a7ef385c" x="50.137685" y="273.017119" style="stroke: #000000; stroke-width: 0.8"/>
      </g>
     </g>
     <g id="text_7">
      <!-- $\mathdefault{10^{2}}$ -->
      <g transform="translate(25.537685 276.816338) scale(0.1 -0.1)">
       <use xlink:href="#DejaVuSans-31" transform="translate(0 0.765625)"/>
       <use xlink:href="#DejaVuSans-30" transform="translate(63.623047 0.765625)"/>
       <use xlink:href="#DejaVuSans-32" transform="translate(128.203125 39.046875) scale(0.7)"/>
      </g>
     </g>
    </g>
    <g id="ytick_3">
     <g id="line2d_65">
      <path d="M 50.137685 163.972271 
L 709.2 163.972271 
" clip-path="url(#pc49fad8348)" style="fill: none; stroke-dasharray: 1.85,0.8; stroke-dashoffset: 0; stroke: #b0b0b0; stroke-width: 0.5"/>
     </g>
     <g id="line2d_66">
      <g>
       <use xlink:href="#md5a7ef385c" x="50.137685" y="163.972271" style="stroke: #000000; stroke-width: 0.8"/>
      </g>
     </g>
     <g id="text_8">
      <!-- $\mathdefault{10^{3}}$ -->
      <g transform="translate(25.537685 167.771489) scale(0.1 -0.1)">
       <defs>
        <path id="DejaVuSans-33" d="M 2597 2516 
Q 3050 2419 3304 2112 
Q 3559 1806 3559 1356 
Q 3559 666 3084 287 
Q 2609 -91 1734 -91 
Q 1441 -91 1130 -33 
Q 819 25 488 141 
L 488 750 
Q 750 597 1062 519 
Q 1375 441 1716 441 
Q 2309 441 2620 675 
Q 2931 909 2931 1356 
Q 2931 1769 2642 2001 
Q 2353 2234 1838 2234 
L 1294 2234 
L 1294 2753 
L 1863 2753 
Q 2328 2753 2575 2939 
Q 2822 3125 2822 3475 
Q 2822 3834 2567 4026 
Q 2313 4219 1838 4219 
Q 1578 4219 1281 4162 
Q 984 4106 628 3988 
L 628 4550 
Q 988 4650 1302 4700 
Q 1616 4750 1894 4750 
Q 2613 4750 3031 4423 
Q 3450 4097 3450 3541 
Q 3450 3153 3228 2886 
Q 3006 2619 2597 2516 
z
" transform="scale(0.015625)"/>
       </defs>
       <use xlink:href="#DejaVuSans-31" transform="translate(0 0.765625)"/>
       <use xlink:href="#DejaVuSans-30" transform="translate(63.623047 0.765625)"/>
       <use xlink:href="#DejaVuSans-33" transform="translate(128.203125 39.046875) scale(0.7)"/>
      </g>
     </g>
    </g>
    <g id="ytick_4">
     <g id="line2d_67">
      <path d="M 50.137685 54.927422 
L 709.2 54.927422 
" clip-path="url(#pc49fad8348)" style="fill: none; stroke-dasharray: 1.85,0.8; stroke-dashoffset: 0; stroke: #b0b0b0; stroke-width: 0.5"/>
     </g>
     <g id="line2d_68">
      <g>
       <use xlink:href="#md5a7ef385c" x="50.137685" y="54.927422" style="stroke: #000000; stroke-width: 0.8"/>
      </g>
     </g>
     <g id="text_9">
      <!-- $\mathdefault{10^{4}}$ -->
      <g transform="translate(25.537685 58.726641) scale(0.1 -0.1)">
       <defs>
        <path id="DejaVuSans-34" d="M 2419 4116 
L 825 1625 
L 2419 1625 
L 2419 4116 
z
M 2253 4666 
L 3047 4666 
L 3047 1625 
L 3713 1625 
L 3713 1100 
L 3047 1100 
L 3047 0 
L 2419 0 
L 2419 1100 
L 313 1100 
L 313 1709 
L 2253 4666 
z
" transform="scale(0.015625)"/>
       </defs>
       <use xlink:href="#DejaVuSans-31" transform="translate(0 0.684375)"/>
       <use xlink:href="#DejaVuSans-30" transform="translate(63.623047 0.684375)"/>
       <use xlink:href="#DejaVuSans-34" transform="translate(128.203125 38.965625) scale(0.7)"/>
      </g>
     </g>
    </g>
    <g id="ytick_5">
     <g id="line2d_69">
      <path d="M 50.137685 349.236197 
L 709.2 349.236197 
" clip-path="url(#pc49fad8348)" style="fill: none; stroke-dasharray: 1.85,0.8; stroke-dashoffset: 0; stroke: #b0b0b0; stroke-width: 0.5"/>
     </g>
     <g id="line2d_70">
      <defs>
       <path id="m59fd1c9607" d="M 0 0 
L -2 0 
" style="stroke: #000000; stroke-width: 0.6"/>
      </defs>
      <g>
       <use xlink:href="#m59fd1c9607" x="50.137685" y="349.236197" style="stroke: #000000; stroke-width: 0.6"/>
      </g>
     </g>
    </g>
    <g id="ytick_6">
     <g id="line2d_71">
      <path d="M 50.137685 330.034353 
L 709.2 330.034353 
" clip-path="url(#pc49fad8348)" style="fill: none; stroke-dasharray: 1.85,0.8; stroke-dashoffset: 0; stroke: #b0b0b0; stroke-width: 0.5"/>
     </g>
     <g id="line2d_72">
      <g>
       <use xlink:href="#m59fd1c9607" x="50.137685" y="330.034353" style="stroke: #000000; stroke-width: 0.6"/>
      </g>
     </g>
    </g>
    <g id="ytick_7">
     <g id="line2d_73">
      <path d="M 50.137685 316.410427 
L 709.2 316.410427 
" clip-path="url(#pc49fad8348)" style="fill: none; stroke-dasharray: 1.85,0.8; stroke-dashoffset: 0; stroke: #b0b0b0; stroke-width: 0.5"/>
     </g>
     <g id="line2d_74">
      <g>
       <use xlink:href="#m59fd1c9607" x="50.137685" y="316.410427" style="stroke: #000000; stroke-width: 0.6"/>
      </g>
     </g>
    </g>
    <g id="ytick_8">
     <g id="line2d_75">
      <path d="M 50.137685 305.842889 
L 709.2 305.842889 
" clip-path="url(#pc49fad8348)" style="fill: none; stroke-dasharray: 1.85,0.8; stroke-dashoffset: 0; stroke: #b0b0b0; stroke-width: 0.5"/>
     </g>
     <g id="line2d_76">
      <g>
       <use xlink:href="#m59fd1c9607" x="50.137685" y="305.842889" style="stroke: #000000; stroke-width: 0.6"/>
      </g>
     </g>
    </g>
    <g id="ytick_9">
     <g id="line2d_77">
      <path d="M 50.137685 297.208582 
L 709.2 297.208582 
" clip-path="url(#pc49fad8348)" style="fill: none; stroke-dasharray: 1.85,0.8; stroke-dashoffset: 0; stroke: #b0b0b0; stroke-width: 0.5"/>
     </g>
     <g id="line2d_78">
      <g>
       <use xlink:href="#m59fd1c9607" x="50.137685" y="297.208582" style="stroke: #000000; stroke-width: 0.6"/>
      </g>
     </g>
    </g>
    <g id="ytick_10">
     <g id="line2d_79">
      <path d="M 50.137685 289.90838 
L 709.2 289.90838 
" clip-path="url(#pc49fad8348)" style="fill: none; stroke-dasharray: 1.85,0.8; stroke-dashoffset: 0; stroke: #b0b0b0; stroke-width: 0.5"/>
     </g>
     <g id="line2d_80">
      <g>
       <use xlink:href="#m59fd1c9607" x="50.137685" y="289.90838" style="stroke: #000000; stroke-width: 0.6"/>
      </g>
     </g>
    </g>
    <g id="ytick_11">
     <g id="line2d_81">
      <path d="M 50.137685 283.584657 
L 709.2 283.584657 
" clip-path="url(#pc49fad8348)" style="fill: none; stroke-dasharray: 1.85,0.8; stroke-dashoffset: 0; stroke: #b0b0b0; stroke-width: 0.5"/>
     </g>
     <g id="line2d_82">
      <g>
       <use xlink:href="#m59fd1c9607" x="50.137685" y="283.584657" style="stroke: #000000; stroke-width: 0.6"/>
      </g>
     </g>
    </g>
    <g id="ytick_12">
     <g id="line2d_83">
      <path d="M 50.137685 278.006738 
L 709.2 278.006738 
" clip-path="url(#pc49fad8348)" style="fill: none; stroke-dasharray: 1.85,0.8; stroke-dashoffset: 0; stroke: #b0b0b0; stroke-width: 0.5"/>
     </g>
     <g id="line2d_84">
      <g>
       <use xlink:href="#m59fd1c9607" x="50.137685" y="278.006738" style="stroke: #000000; stroke-width: 0.6"/>
      </g>
     </g>
    </g>
    <g id="ytick_13">
     <g id="line2d_85">
      <path d="M 50.137685 240.191349 
L 709.2 240.191349 
" clip-path="url(#pc49fad8348)" style="fill: none; stroke-dasharray: 1.85,0.8; stroke-dashoffset: 0; stroke: #b0b0b0; stroke-width: 0.5"/>
     </g>
     <g id="line2d_86">
      <g>
       <use xlink:href="#m59fd1c9607" x="50.137685" y="240.191349" style="stroke: #000000; stroke-width: 0.6"/>
      </g>
     </g>
    </g>
    <g id="ytick_14">
     <g id="line2d_87">
      <path d="M 50.137685 220.989504 
L 709.2 220.989504 
" clip-path="url(#pc49fad8348)" style="fill: none; stroke-dasharray: 1.85,0.8; stroke-dashoffset: 0; stroke: #b0b0b0; stroke-width: 0.5"/>
     </g>
     <g id="line2d_88">
      <g>
       <use xlink:href="#m59fd1c9607" x="50.137685" y="220.989504" style="stroke: #000000; stroke-width: 0.6"/>
      </g>
     </g>
    </g>
    <g id="ytick_15">
     <g id="line2d_89">
      <path d="M 50.137685 207.365579 
L 709.2 207.365579 
" clip-path="url(#pc49fad8348)" style="fill: none; stroke-dasharray: 1.85,0.8; stroke-dashoffset: 0; stroke: #b0b0b0; stroke-width: 0.5"/>
     </g>
     <g id="line2d_90">
      <g>
       <use xlink:href="#m59fd1c9607" x="50.137685" y="207.365579" style="stroke: #000000; stroke-width: 0.6"/>
      </g>
     </g>
    </g>
    <g id="ytick_16">
     <g id="line2d_91">
      <path d="M 50.137685 196.798041 
L 709.2 196.798041 
" clip-path="url(#pc49fad8348)" style="fill: none; stroke-dasharray: 1.85,0.8; stroke-dashoffset: 0; stroke: #b0b0b0; stroke-width: 0.5"/>
     </g>
     <g id="line2d_92">
      <g>
       <use xlink:href="#m59fd1c9607" x="50.137685" y="196.798041" style="stroke: #000000; stroke-width: 0.6"/>
      </g>
     </g>
    </g>
    <g id="ytick_17">
     <g id="line2d_93">
      <path d="M 50.137685 188.163734 
L 709.2 188.163734 
" clip-path="url(#pc49fad8348)" style="fill: none; stroke-dasharray: 1.85,0.8; stroke-dashoffset: 0; stroke: #b0b0b0; stroke-width: 0.5"/>
     </g>
     <g id="line2d_94">
      <g>
       <use xlink:href="#m59fd1c9607" x="50.137685" y="188.163734" style="stroke: #000000; stroke-width: 0.6"/>
      </g>
     </g>
    </g>
    <g id="ytick_18">
     <g id="line2d_95">
      <path d="M 50.137685 180.863531 
L 709.2 180.863531 
" clip-path="url(#pc49fad8348)" style="fill: none; stroke-dasharray: 1.85,0.8; stroke-dashoffset: 0; stroke: #b0b0b0; stroke-width: 0.5"/>
     </g>
     <g id="line2d_96">
      <g>
       <use xlink:href="#m59fd1c9607" x="50.137685" y="180.863531" style="stroke: #000000; stroke-width: 0.6"/>
      </g>
     </g>
    </g>
    <g id="ytick_19">
     <g id="line2d_97">
      <path d="M 50.137685 174.539808 
L 709.2 174.539808 
" clip-path="url(#pc49fad8348)" style="fill: none; stroke-dasharray: 1.85,0.8; stroke-dashoffset: 0; stroke: #b0b0b0; stroke-width: 0.5"/>
     </g>
     <g id="line2d_98">
      <g>
       <use xlink:href="#m59fd1c9607" x="50.137685" y="174.539808" style="stroke: #000000; stroke-width: 0.6"/>
      </g>
     </g>
    </g>
    <g id="ytick_20">
     <g id="line2d_99">
      <path d="M 50.137685 168.961889 
L 709.2 168.961889 
" clip-path="url(#pc49fad8348)" style="fill: none; stroke-dasharray: 1.85,0.8; stroke-dashoffset: 0; stroke: #b0b0b0; stroke-width: 0.5"/>
     </g>
     <g id="line2d_100">
      <g>
       <use xlink:href="#m59fd1c9607" x="50.137685" y="168.961889" style="stroke: #000000; stroke-width: 0.6"/>
      </g>
     </g>
    </g>
    <g id="ytick_21">
     <g id="line2d_101">
      <path d="M 50.137685 131.1465 
L 709.2 131.1465 
" clip-path="url(#pc49fad8348)" style="fill: none; stroke-dasharray: 1.85,0.8; stroke-dashoffset: 0; stroke: #b0b0b0; stroke-width: 0.5"/>
     </g>
     <g id="line2d_102">
      <g>
       <use xlink:href="#m59fd1c9607" x="50.137685" y="131.1465" style="stroke: #000000; stroke-width: 0.6"/>
      </g>
     </g>
    </g>
    <g id="ytick_22">
     <g id="line2d_103">
      <path d="M 50.137685 111.944656 
L 709.2 111.944656 
" clip-path="url(#pc49fad8348)" style="fill: none; stroke-dasharray: 1.85,0.8; stroke-dashoffset: 0; stroke: #b0b0b0; stroke-width: 0.5"/>
     </g>
     <g id="line2d_104">
      <g>
       <use xlink:href="#m59fd1c9607" x="50.137685" y="111.944656" style="stroke: #000000; stroke-width: 0.6"/>
      </g>
     </g>
    </g>
    <g id="ytick_23">
     <g id="line2d_105">
      <path d="M 50.137685 98.32073 
L 709.2 98.32073 
" clip-path="url(#pc49fad8348)" style="fill: none; stroke-dasharray: 1.85,0.8; stroke-dashoffset: 0; stroke: #b0b0b0; stroke-width: 0.5"/>
     </g>
     <g id="line2d_106">
      <g>
       <use xlink:href="#m59fd1c9607" x="50.137685" y="98.32073" style="stroke: #000000; stroke-width: 0.6"/>
      </g>
     </g>
    </g>
    <g id="ytick_24">
     <g id="line2d_107">
      <path d="M 50.137685 87.753192 
L 709.2 87.753192 
" clip-path="url(#pc49fad8348)" style="fill: none; stroke-dasharray: 1.85,0.8; stroke-dashoffset: 0; stroke: #b0b0b0; stroke-width: 0.5"/>
     </g>
     <g id="line2d_108">
      <g>
       <use xlink:href="#m59fd1c9607" x="50.137685" y="87.753192" style="stroke: #000000; stroke-width: 0.6"/>
      </g>
     </g>
    </g>
    <g id="ytick_25">
     <g id="line2d_109">
      <path d="M 50.137685 79.118885 
L 709.2 79.118885 
" clip-path="url(#pc49fad8348)" style="fill: none; stroke-dasharray: 1.85,0.8; stroke-dashoffset: 0; stroke: #b0b0b0; stroke-width: 0.5"/>
     </g>
     <g id="line2d_110">
      <g>
       <use xlink:href="#m59fd1c9607" x="50.137685" y="79.118885" style="stroke: #000000; stroke-width: 0.6"/>
      </g>
     </g>
    </g>
    <g id="ytick_26">
     <g id="line2d_111">
      <path d="M 50.137685 71.818683 
L 709.2 71.818683 
" clip-path="url(#pc49fad8348)" style="fill: none; stroke-dasharray: 1.85,0.8; stroke-dashoffset: 0; stroke: #b0b0b0; stroke-width: 0.5"/>
     </g>
     <g id="line2d_112">
      <g>
       <use xlink:href="#m59fd1c9607" x="50.137685" y="71.818683" style="stroke: #000000; stroke-width: 0.6"/>
      </g>
     </g>
    </g>
    <g id="ytick_27">
     <g id="line2d_113">
      <path d="M 50.137685 65.49496 
L 709.2 65.49496 
" clip-path="url(#pc49fad8348)" style="fill: none; stroke-dasharray: 1.85,0.8; stroke-dashoffset: 0; stroke: #b0b0b0; stroke-width: 0.5"/>
     </g>
     <g id="line2d_114">
      <g>
       <use xlink:href="#m59fd1c9607" x="50.137685" y="65.49496" style="stroke: #000000; stroke-width: 0.6"/>
      </g>
     </g>
    </g>
    <g id="ytick_28">
     <g id="line2d_115">
      <path d="M 50.137685 59.917041 
L 709.2 59.917041 
" clip-path="url(#pc49fad8348)" style="fill: none; stroke-dasharray: 1.85,0.8; stroke-dashoffset: 0; stroke: #b0b0b0; stroke-width: 0.5"/>
     </g>
     <g id="line2d_116">
      <g>
       <use xlink:href="#m59fd1c9607" x="50.137685" y="59.917041" style="stroke: #000000; stroke-width: 0.6"/>
      </g>
     </g>
    </g>
    <g id="text_10">
     <!-- Performance (GIPS) -->
     <g transform="translate(19.457997 255.514938) rotate(-90) scale(0.1 -0.1)">
      <defs>
       <path id="DejaVuSans-50" d="M 1259 4147 
L 1259 2394 
L 2053 2394 
Q 2494 2394 2734 2622 
Q 2975 2850 2975 3272 
Q 2975 3691 2734 3919 
Q 2494 4147 2053 4147 
L 1259 4147 
z
M 628 4666 
L 2053 4666 
Q 2838 4666 3239 4311 
Q 3641 3956 3641 3272 
Q 3641 2581 3239 2228 
Q 2838 1875 2053 1875 
L 1259 1875 
L 1259 0 
L 628 0 
L 628 4666 
z
" transform="scale(0.015625)"/>
       <path id="DejaVuSans-66" d="M 2375 4863 
L 2375 4384 
L 1825 4384 
Q 1516 4384 1395 4259 
Q 1275 4134 1275 3809 
L 1275 3500 
L 2222 3500 
L 2222 3053 
L 1275 3053 
L 1275 0 
L 697 0 
L 697 3053 
L 147 3053 
L 147 3500 
L 697 3500 
L 697 3744 
Q 697 4328 969 4595 
Q 1241 4863 1831 4863 
L 2375 4863 
z
" transform="scale(0.015625)"/>
       <path id="DejaVuSans-61" d="M 2194 1759 
Q 1497 1759 1228 1600 
Q 959 1441 959 1056 
Q 959 750 1161 570 
Q 1363 391 1709 391 
Q 2188 391 2477 730 
Q 2766 1069 2766 1631 
L 2766 1759 
L 2194 1759 
z
M 3341 1997 
L 3341 0 
L 2766 0 
L 2766 531 
Q 2569 213 2275 61 
Q 1981 -91 1556 -91 
Q 1019 -91 701 211 
Q 384 513 384 1019 
Q 384 1609 779 1909 
Q 1175 2209 1959 2209 
L 2766 2209 
L 2766 2266 
Q 2766 2663 2505 2880 
Q 2244 3097 1772 3097 
Q 1472 3097 1187 3025 
Q 903 2953 641 2809 
L 641 3341 
Q 956 3463 1253 3523 
Q 1550 3584 1831 3584 
Q 2591 3584 2966 3190 
Q 3341 2797 3341 1997 
z
" transform="scale(0.015625)"/>
       <path id="DejaVuSans-47" d="M 3809 666 
L 3809 1919 
L 2778 1919 
L 2778 2438 
L 4434 2438 
L 4434 434 
Q 4069 175 3628 42 
Q 3188 -91 2688 -91 
Q 1594 -91 976 548 
Q 359 1188 359 2328 
Q 359 3472 976 4111 
Q 1594 4750 2688 4750 
Q 3144 4750 3555 4637 
Q 3966 4525 4313 4306 
L 4313 3634 
Q 3963 3931 3569 4081 
Q 3175 4231 2741 4231 
Q 1884 4231 1454 3753 
Q 1025 3275 1025 2328 
Q 1025 1384 1454 906 
Q 1884 428 2741 428 
Q 3075 428 3337 486 
Q 3600 544 3809 666 
z
" transform="scale(0.015625)"/>
       <path id="DejaVuSans-53" d="M 3425 4513 
L 3425 3897 
Q 3066 4069 2747 4153 
Q 2428 4238 2131 4238 
Q 1616 4238 1336 4038 
Q 1056 3838 1056 3469 
Q 1056 3159 1242 3001 
Q 1428 2844 1947 2747 
L 2328 2669 
Q 3034 2534 3370 2195 
Q 3706 1856 3706 1288 
Q 3706 609 3251 259 
Q 2797 -91 1919 -91 
Q 1588 -91 1214 -16 
Q 841 59 441 206 
L 441 856 
Q 825 641 1194 531 
Q 1563 422 1919 422 
Q 2459 422 2753 634 
Q 3047 847 3047 1241 
Q 3047 1584 2836 1778 
Q 2625 1972 2144 2069 
L 1759 2144 
Q 1053 2284 737 2584 
Q 422 2884 422 3419 
Q 422 4038 858 4394 
Q 1294 4750 2059 4750 
Q 2388 4750 2728 4690 
Q 3069 4631 3425 4513 
z
" transform="scale(0.015625)"/>
      </defs>
      <use xlink:href="#DejaVuSans-50"/>
      <use xlink:href="#DejaVuSans-65" x="56.677734"/>
      <use xlink:href="#DejaVuSans-72" x="118.201172"/>
      <use xlink:href="#DejaVuSans-66" x="159.314453"/>
      <use xlink:href="#DejaVuSans-6f" x="194.519531"/>
      <use xlink:href="#DejaVuSans-72" x="255.701172"/>
      <use xlink:href="#DejaVuSans-6d" x="295.064453"/>
      <use xlink:href="#DejaVuSans-61" x="392.476562"/>
      <use xlink:href="#DejaVuSans-6e" x="453.755859"/>
      <use xlink:href="#DejaVuSans-63" x="517.134766"/>
      <use xlink:href="#DejaVuSans-65" x="572.115234"/>
      <use xlink:href="#DejaVuSans-20" x="633.638672"/>
      <use xlink:href="#DejaVuSans-28" x="665.425781"/>
      <use xlink:href="#DejaVuSans-47" x="704.439453"/>
      <use xlink:href="#DejaVuSans-49" x="781.929688"/>
      <use xlink:href="#DejaVuSans-50" x="811.421875"/>
      <use xlink:href="#DejaVuSans-53" x="871.724609"/>
      <use xlink:href="#DejaVuSans-29" x="935.201172"/>
     </g>
    </g>
   </g>
   <g id="line2d_117">
    <path d="M 80.095063 370.371273 
L 86.147058 367.066883 
L 92.199054 363.762494 
L 98.251049 360.458105 
L 104.303045 357.153715 
L 110.35504 353.849326 
L 116.407036 350.544937 
L 122.459032 347.240547 
L 128.511027 343.936158 
L 134.563023 340.631769 
L 140.615018 337.327379 
L 146.667014 334.02299 
L 152.719009 330.718601 
L 158.771005 327.414211 
L 164.823 324.109822 
L 170.874996 320.805433 
L 176.926992 317.501043 
L 182.978987 314.196654 
L 189.030983 310.892264 
L 195.082978 307.587875 
L 201.134974 304.283486 
L 207.186969 300.979096 
L 213.238965 297.674707 
L 219.29096 294.370318 
L 225.342956 291.065928 
L 231.394951 287.761539 
L 237.446947 284.45715 
L 243.498943 281.15276 
L 249.550938 277.848371 
L 255.602934 274.543982 
L 261.654929 271.239592 
L 267.706925 267.935203 
L 273.75892 264.630814 
L 279.810916 261.326424 
L 285.862911 258.022035 
L 291.914907 254.717646 
L 297.966902 251.413256 
L 304.018898 248.108867 
L 310.070894 244.804478 
L 316.122889 241.500088 
L 322.174885 238.195699 
L 328.22688 234.891309 
L 334.278876 231.58692 
L 340.330871 228.282531 
L 346.382867 224.978141 
L 352.434862 221.673752 
L 358.486858 218.369363 
L 364.538854 215.064973 
L 370.590849 211.760584 
L 376.642845 208.456195 
L 382.69484 205.151805 
L 388.746836 201.847416 
L 394.798831 198.543027 
L 400.850827 195.238637 
L 406.902822 191.934248 
L 412.954818 188.629859 
L 419.006813 185.325469 
L 425.058809 182.02108 
L 431.110805 178.716691 
L 437.1628 175.412301 
L 443.214796 172.107912 
L 449.266791 168.803522 
L 455.318787 165.499133 
L 461.370782 162.194744 
L 467.422778 158.890354 
L 473.474773 155.585965 
L 479.526769 152.281576 
L 485.578764 150.466887 
L 491.63076 150.466887 
L 497.682756 150.466887 
L 503.734751 150.466887 
L 509.786747 150.466887 
L 515.838742 150.466887 
L 521.890738 150.466887 
L 527.942733 150.466887 
L 533.994729 150.466887 
L 540.046724 150.466887 
L 546.09872 150.466887 
L 552.150716 150.466887 
L 558.202711 150.466887 
L 564.254707 150.466887 
L 570.306702 150.466887 
L 576.358698 150.466887 
L 582.410693 150.466887 
L 588.462689 150.466887 
L 594.514684 150.466887 
L 600.56668 150.466887 
L 606.618675 150.466887 
L 612.670671 150.466887 
L 618.722667 150.466887 
L 624.774662 150.466887 
L 630.826658 150.466887 
L 636.878653 150.466887 
L 642.930649 150.466887 
L 648.982644 150.466887 
L 655.03464 150.466887 
L 661.086635 150.466887 
L 667.138631 150.466887 
L 673.190626 150.466887 
L 679.242622 150.466887 
" clip-path="url(#pc49fad8348)" style="fill: none; stroke: #000000; stroke-width: 2; stroke-linecap: square"/>
   </g>
   <g id="LineCollection_1">
    <path d="M 80.095063 150.466887 
L 679.242622 150.466887 
" clip-path="url(#pc49fad8348)" style="fill: none; stroke-dasharray: 5.55,2.4; stroke-dashoffset: 0; stroke: #ff0000; stroke-width: 1.5"/>
   </g>
   <g id="line2d_118">
    <path d="M 80.095063 370.371273 
L 86.147058 367.066883 
L 92.199054 363.762494 
L 98.251049 360.458105 
L 104.303045 357.153715 
L 110.35504 353.849326 
L 116.407036 350.544937 
L 122.459032 347.240547 
L 128.511027 343.936158 
L 134.563023 340.631769 
L 140.615018 337.327379 
L 146.667014 334.02299 
L 152.719009 330.718601 
L 158.771005 327.414211 
L 164.823 324.109822 
L 170.874996 320.805433 
L 176.926992 317.501043 
L 182.978987 314.196654 
L 189.030983 310.892264 
L 195.082978 307.587875 
L 201.134974 304.283486 
L 207.186969 300.979096 
L 213.238965 297.674707 
L 219.29096 294.370318 
L 225.342956 291.065928 
L 231.394951 287.761539 
L 237.446947 284.45715 
L 243.498943 281.15276 
L 249.550938 277.848371 
L 255.602934 274.543982 
L 261.654929 271.239592 
L 267.706925 267.935203 
L 273.75892 264.630814 
L 279.810916 261.326424 
L 285.862911 258.022035 
L 291.914907 254.717646 
L 297.966902 251.413256 
L 304.018898 248.108867 
L 310.070894 244.804478 
L 316.122889 241.500088 
L 322.174885 238.195699 
L 328.22688 234.891309 
L 334.278876 231.58692 
L 340.330871 228.282531 
L 346.382867 224.978141 
L 352.434862 221.673752 
L 358.486858 218.369363 
L 364.538854 215.064973 
L 370.590849 211.760584 
L 376.642845 208.456195 
L 382.69484 205.151805 
L 388.746836 201.847416 
L 394.798831 198.543027 
L 400.850827 195.238637 
L 406.902822 191.934248 
L 412.954818 188.629859 
L 419.006813 185.325469 
L 425.058809 182.02108 
L 431.110805 178.716691 
L 437.1628 175.412301 
L 443.214796 172.107912 
L 449.266791 168.803522 
L 455.318787 165.499133 
L 461.370782 162.194744 
L 467.422778 158.890354 
L 473.474773 155.585965 
L 479.526769 152.281576 
L 485.578764 148.977186 
L 491.63076 145.672797 
L 497.682756 142.368408 
L 503.734751 139.064018 
L 509.786747 135.759629 
L 515.838742 132.45524 
L 521.890738 129.15085 
L 527.942733 125.846461 
L 533.994729 122.542072 
L 540.046724 119.237682 
L 546.09872 115.933293 
L 552.150716 112.628904 
L 558.202711 109.324514 
L 564.254707 106.020125 
L 570.306702 102.715736 
L 576.358698 99.411346 
L 582.410693 96.106957 
L 588.462689 92.802567 
L 594.514684 89.498178 
L 600.56668 86.193789 
L 606.618675 82.889399 
L 612.670671 79.58501 
L 618.722667 76.280621 
L 624.774662 72.976231 
L 630.826658 69.671842 
L 636.878653 66.367453 
L 642.930649 63.063063 
L 648.982644 59.758674 
L 655.03464 56.454285 
L 661.086635 53.149895 
L 667.138631 49.845506 
L 673.190626 46.541117 
L 679.242622 43.236727 
" clip-path="url(#pc49fad8348)" style="fill: none; stroke-dasharray: 5.55,2.4; stroke-dashoffset: 0; stroke: #ffa500; stroke-width: 1.5"/>
   </g>
   <g id="patch_3">
    <path d="M 50.137685 386.728 
L 50.137685 26.88 
" style="fill: none; stroke: #000000; stroke-width: 0.8; stroke-linejoin: miter; stroke-linecap: square"/>
   </g>
   <g id="patch_4">
    <path d="M 709.2 386.728 
L 709.2 26.88 
" style="fill: none; stroke: #000000; stroke-width: 0.8; stroke-linejoin: miter; stroke-linecap: square"/>
   </g>
   <g id="patch_5">
    <path d="M 50.137685 386.728 
L 709.2 386.728 
" style="fill: none; stroke: #000000; stroke-width: 0.8; stroke-linejoin: miter; stroke-linecap: square"/>
   </g>
   <g id="patch_6">
    <path d="M 50.137685 26.88 
L 709.2 26.88 
" style="fill: none; stroke: #000000; stroke-width: 0.8; stroke-linejoin: miter; stroke-linecap: square"/>
   </g>
   <g id="text_11">
    <!-- Roofline Model of CUDA Hash Kernels -->
    <g transform="translate(267.860717 20.88) scale(0.12 -0.12)">
     <defs>
      <path id="DejaVuSans-52" d="M 2841 2188 
Q 3044 2119 3236 1894 
Q 3428 1669 3622 1275 
L 4263 0 
L 3584 0 
L 2988 1197 
Q 2756 1666 2539 1819 
Q 2322 1972 1947 1972 
L 1259 1972 
L 1259 0 
L 628 0 
L 628 4666 
L 2053 4666 
Q 2853 4666 3247 4331 
Q 3641 3997 3641 3322 
Q 3641 2881 3436 2590 
Q 3231 2300 2841 2188 
z
M 1259 4147 
L 1259 2491 
L 2053 2491 
Q 2509 2491 2742 2702 
Q 2975 2913 2975 3322 
Q 2975 3731 2742 3939 
Q 2509 4147 2053 4147 
L 1259 4147 
z
" transform="scale(0.015625)"/>
      <path id="DejaVuSans-6c" d="M 603 4863 
L 1178 4863 
L 1178 0 
L 603 0 
L 603 4863 
z
" transform="scale(0.015625)"/>
      <path id="DejaVuSans-4d" d="M 628 4666 
L 1569 4666 
L 2759 1491 
L 3956 4666 
L 4897 4666 
L 4897 0 
L 4281 0 
L 4281 4097 
L 3078 897 
L 2444 897 
L 1241 4097 
L 1241 0 
L 628 0 
L 628 4666 
z
" transform="scale(0.015625)"/>
      <path id="DejaVuSans-64" d="M 2906 2969 
L 2906 4863 
L 3481 4863 
L 3481 0 
L 2906 0 
L 2906 525 
Q 2725 213 2448 61 
Q 2172 -91 1784 -91 
Q 1150 -91 751 415 
Q 353 922 353 1747 
Q 353 2572 751 3078 
Q 1150 3584 1784 3584 
Q 2172 3584 2448 3432 
Q 2725 3281 2906 2969 
z
M 947 1747 
Q 947 1113 1208 752 
Q 1469 391 1925 391 
Q 2381 391 2643 752 
Q 2906 1113 2906 1747 
Q 2906 2381 2643 2742 
Q 2381 3103 1925 3103 
Q 1469 3103 1208 2742 
Q 947 2381 947 1747 
z
" transform="scale(0.015625)"/>
      <path id="DejaVuSans-43" d="M 4122 4306 
L 4122 3641 
Q 3803 3938 3442 4084 
Q 3081 4231 2675 4231 
Q 1875 4231 1450 3742 
Q 1025 3253 1025 2328 
Q 1025 1406 1450 917 
Q 1875 428 2675 428 
Q 3081 428 3442 575 
Q 3803 722 4122 1019 
L 4122 359 
Q 3791 134 3420 21 
Q 3050 -91 2638 -91 
Q 1578 -91 968 557 
Q 359 1206 359 2328 
Q 359 3453 968 4101 
Q 1578 4750 2638 4750 
Q 3056 4750 3426 4639 
Q 3797 4528 4122 4306 
z
" transform="scale(0.015625)"/>
      <path id="DejaVuSans-55" d="M 556 4666 
L 1191 4666 
L 1191 1831 
Q 1191 1081 1462 751 
Q 1734 422 2344 422 
Q 2950 422 3222 751 
Q 3494 1081 3494 1831 
L 3494 4666 
L 4128 4666 
L 4128 1753 
Q 4128 841 3676 375 
Q 3225 -91 2344 -91 
Q 1459 -91 1007 375 
Q 556 841 556 1753 
L 556 4666 
z
" transform="scale(0.015625)"/>
      <path id="DejaVuSans-44" d="M 1259 4147 
L 1259 519 
L 2022 519 
Q 2988 519 3436 956 
Q 3884 1394 3884 2338 
Q 3884 3275 3436 3711 
Q 2988 4147 2022 4147 
L 1259 4147 
z
M 628 4666 
L 1925 4666 
Q 3281 4666 3915 4102 
Q 4550 3538 4550 2338 
Q 4550 1131 3912 565 
Q 3275 0 1925 0 
L 628 0 
L 628 4666 
z
" transform="scale(0.015625)"/>
      <path id="DejaVuSans-48" d="M 628 4666 
L 1259 4666 
L 1259 2753 
L 3553 2753 
L 3553 4666 
L 4184 4666 
L 4184 0 
L 3553 0 
L 3553 2222 
L 1259 2222 
L 1259 0 
L 628 0 
L 628 4666 
z
" transform="scale(0.015625)"/>
      <path id="DejaVuSans-4b" d="M 628 4666 
L 1259 4666 
L 1259 2694 
L 3353 4666 
L 4166 4666 
L 1850 2491 
L 4331 0 
L 3500 0 
L 1259 2247 
L 1259 0 
L 628 0 
L 628 4666 
z
" transform="scale(0.015625)"/>
     </defs>
     <use xlink:href="#DejaVuSans-52"/>
     <use xlink:href="#DejaVuSans-6f" x="64.982422"/>
     <use xlink:href="#DejaVuSans-6f" x="126.164062"/>
     <use xlink:href="#DejaVuSans-66" x="187.345703"/>
     <use xlink:href="#DejaVuSans-6c" x="222.550781"/>
     <use xlink:href="#DejaVuSans-69" x="250.333984"/>
     <use xlink:href="#DejaVuSans-6e" x="278.117188"/>
     <use xlink:href="#DejaVuSans-65" x="341.496094"/>
     <use xlink:href="#DejaVuSans-20" x="403.019531"/>
     <use xlink:href="#DejaVuSans-4d" x="434.806641"/>
     <use xlink:href="#DejaVuSans-6f" x="521.085938"/>
     <use xlink:href="#DejaVuSans-64" x="582.267578"/>
     <use xlink:href="#DejaVuSans-65" x="645.744141"/>
     <use xlink:href="#DejaVuSans-6c" x="707.267578"/>
     <use xlink:href="#DejaVuSans-20" x="735.050781"/>
     <use xlink:href="#DejaVuSans-6f" x="766.837891"/>
     <use xlink:href="#DejaVuSans-66" x="828.019531"/>
     <use xlink:href="#DejaVuSans-20" x="863.224609"/>
     <use xlink:href="#DejaVuSans-43" x="895.011719"/>
     <use xlink:href="#DejaVuSans-55" x="964.835938"/>
     <use xlink:href="#DejaVuSans-44" x="1038.029297"/>
     <use xlink:href="#DejaVuSans-41" x="1113.28125"/>
     <use xlink:href="#DejaVuSans-20" x="1181.689453"/>
     <use xlink:href="#DejaVuSans-48" x="1213.476562"/>
     <use xlink:href="#DejaVuSans-61" x="1288.671875"/>
     <use xlink:href="#DejaVuSans-73" x="1349.951172"/>
     <use xlink:href="#DejaVuSans-68" x="1402.050781"/>
     <use xlink:href="#DejaVuSans-20" x="1465.429688"/>
     <use xlink:href="#DejaVuSans-4b" x="1497.216797"/>
     <use xlink:href="#DejaVuSans-65" x="1557.792969"/>
     <use xlink:href="#DejaVuSans-72" x="1619.316406"/>
     <use xlink:href="#DejaVuSans-6e" x="1658.679688"/>
     <use xlink:href="#DejaVuSans-65" x="1722.058594"/>
     <use xlink:href="#DejaVuSans-6c" x="1783.582031"/>
     <use xlink:href="#DejaVuSans-73" x="1811.365234"/>
    </g>
   </g>
   <g id="legend_1">
    <g id="patch_7">
     <path d="M 57.137685 381.728 
L 195.79706 381.728 
Q 197.79706 381.728 197.79706 379.728 
L 197.79706 277.981125 
Q 197.79706 275.981125 195.79706 275.981125 
L 57.137685 275.981125 
Q 55.137685 275.981125 55.137685 277.981125 
L 55.137685 379.728 
Q 55.137685 381.728 57.137685 381.728 
z
" style="fill: #ffffff; opacity: 0.8; stroke: #cccccc; stroke-linejoin: miter"/>
    </g>
    <g id="text_12">
     <!-- Kernels -->
     <g transform="translate(108.154872 287.579563) scale(0.1 -0.1)">
      <use xlink:href="#DejaVuSans-4b"/>
      <use xlink:href="#DejaVuSans-65" x="60.576172"/>
      <use xlink:href="#DejaVuSans-72" x="122.099609"/>
      <use xlink:href="#DejaVuSans-6e" x="161.462891"/>
      <use xlink:href="#DejaVuSans-65" x="224.841797"/>
      <use xlink:href="#DejaVuSans-6c" x="286.365234"/>
      <use xlink:href="#DejaVuSans-73" x="314.148438"/>
     </g>
    </g>
    <g id="PathCollection_7">
     <g>
      <use xlink:href="#m3472d9c09f" x="69.137685" y="299.632688" style="fill: #ff0000; stroke: #ff0000"/>
     </g>
    </g>
    <g id="text_13">
     <!-- MD5 (no streams) -->
     <g transform="translate(87.137685 302.257688) scale(0.1 -0.1)">
      <defs>
       <path id="DejaVuSans-35" d="M 691 4666 
L 3169 4666 
L 3169 4134 
L 1269 4134 
L 1269 2991 
Q 1406 3038 1543 3061 
Q 1681 3084 1819 3084 
Q 2600 3084 3056 2656 
Q 3513 2228 3513 1497 
Q 3513 744 3044 326 
Q 2575 -91 1722 -91 
Q 1428 -91 1123 -41 
Q 819 9 494 109 
L 494 744 
Q 775 591 1075 516 
Q 1375 441 1709 441 
Q 2250 441 2565 725 
Q 2881 1009 2881 1497 
Q 2881 1984 2565 2268 
Q 2250 2553 1709 2553 
Q 1456 2553 1204 2497 
Q 953 2441 691 2322 
L 691 4666 
z
" transform="scale(0.015625)"/>
      </defs>
      <use xlink:href="#DejaVuSans-4d"/>
      <use xlink:href="#DejaVuSans-44" x="86.279297"/>
      <use xlink:href="#DejaVuSans-35" x="163.28125"/>
      <use xlink:href="#DejaVuSans-20" x="226.904297"/>
      <use xlink:href="#DejaVuSans-28" x="258.691406"/>
      <use xlink:href="#DejaVuSans-6e" x="297.705078"/>
      <use xlink:href="#DejaVuSans-6f" x="361.083984"/>
      <use xlink:href="#DejaVuSans-20" x="422.265625"/>
      <use xlink:href="#DejaVuSans-73" x="454.052734"/>
      <use xlink:href="#DejaVuSans-74" x="506.152344"/>
      <use xlink:href="#DejaVuSans-72" x="545.361328"/>
      <use xlink:href="#DejaVuSans-65" x="584.224609"/>
      <use xlink:href="#DejaVuSans-61" x="645.748047"/>
      <use xlink:href="#DejaVuSans-6d" x="707.027344"/>
      <use xlink:href="#DejaVuSans-73" x="804.439453"/>
      <use xlink:href="#DejaVuSans-29" x="856.539062"/>
     </g>
    </g>
    <g id="PathCollection_8">
     <g>
      <use xlink:href="#m2ffe094e7e" x="69.137685" y="314.310812" style="fill: #008000; stroke: #008000"/>
     </g>
    </g>
    <g id="text_14">
     <!-- SHA1 (no streams) -->
     <g transform="translate(87.137685 316.935812) scale(0.1 -0.1)">
      <use xlink:href="#DejaVuSans-53"/>
      <use xlink:href="#DejaVuSans-48" x="63.476562"/>
      <use xlink:href="#DejaVuSans-41" x="138.671875"/>
      <use xlink:href="#DejaVuSans-31" x="207.080078"/>
      <use xlink:href="#DejaVuSans-20" x="270.703125"/>
      <use xlink:href="#DejaVuSans-28" x="302.490234"/>
      <use xlink:href="#DejaVuSans-6e" x="341.503906"/>
      <use xlink:href="#DejaVuSans-6f" x="404.882812"/>
      <use xlink:href="#DejaVuSans-20" x="466.064453"/>
      <use xlink:href="#DejaVuSans-73" x="497.851562"/>
      <use xlink:href="#DejaVuSans-74" x="549.951172"/>
      <use xlink:href="#DejaVuSans-72" x="589.160156"/>
      <use xlink:href="#DejaVuSans-65" x="628.023438"/>
      <use xlink:href="#DejaVuSans-61" x="689.546875"/>
      <use xlink:href="#DejaVuSans-6d" x="750.826172"/>
      <use xlink:href="#DejaVuSans-73" x="848.238281"/>
      <use xlink:href="#DejaVuSans-29" x="900.337891"/>
     </g>
    </g>
    <g id="PathCollection_9">
     <g>
      <use xlink:href="#mc12c0ab35f" x="69.137685" y="328.988938" style="fill: #0000ff; stroke: #0000ff"/>
     </g>
    </g>
    <g id="text_15">
     <!-- SHA256 (no streams) -->
     <g transform="translate(87.137685 331.613938) scale(0.1 -0.1)">
      <defs>
       <path id="DejaVuSans-36" d="M 2113 2584 
Q 1688 2584 1439 2293 
Q 1191 2003 1191 1497 
Q 1191 994 1439 701 
Q 1688 409 2113 409 
Q 2538 409 2786 701 
Q 3034 994 3034 1497 
Q 3034 2003 2786 2293 
Q 2538 2584 2113 2584 
z
M 3366 4563 
L 3366 3988 
Q 3128 4100 2886 4159 
Q 2644 4219 2406 4219 
Q 1781 4219 1451 3797 
Q 1122 3375 1075 2522 
Q 1259 2794 1537 2939 
Q 1816 3084 2150 3084 
Q 2853 3084 3261 2657 
Q 3669 2231 3669 1497 
Q 3669 778 3244 343 
Q 2819 -91 2113 -91 
Q 1303 -91 875 529 
Q 447 1150 447 2328 
Q 447 3434 972 4092 
Q 1497 4750 2381 4750 
Q 2619 4750 2861 4703 
Q 3103 4656 3366 4563 
z
" transform="scale(0.015625)"/>
      </defs>
      <use xlink:href="#DejaVuSans-53"/>
      <use xlink:href="#DejaVuSans-48" x="63.476562"/>
      <use xlink:href="#DejaVuSans-41" x="138.671875"/>
      <use xlink:href="#DejaVuSans-32" x="207.080078"/>
      <use xlink:href="#DejaVuSans-35" x="270.703125"/>
      <use xlink:href="#DejaVuSans-36" x="334.326172"/>
      <use xlink:href="#DejaVuSans-20" x="397.949219"/>
      <use xlink:href="#DejaVuSans-28" x="429.736328"/>
      <use xlink:href="#DejaVuSans-6e" x="468.75"/>
      <use xlink:href="#DejaVuSans-6f" x="532.128906"/>
      <use xlink:href="#DejaVuSans-20" x="593.310547"/>
      <use xlink:href="#DejaVuSans-73" x="625.097656"/>
      <use xlink:href="#DejaVuSans-74" x="677.197266"/>
      <use xlink:href="#DejaVuSans-72" x="716.40625"/>
      <use xlink:href="#DejaVuSans-65" x="755.269531"/>
      <use xlink:href="#DejaVuSans-61" x="816.792969"/>
      <use xlink:href="#DejaVuSans-6d" x="878.072266"/>
      <use xlink:href="#DejaVuSans-73" x="975.484375"/>
      <use xlink:href="#DejaVuSans-29" x="1027.583984"/>
     </g>
    </g>
    <g id="PathCollection_10">
     <g>
      <use xlink:href="#mc17106582b" x="69.137685" y="343.667063" style="fill: #ff0000; stroke: #ff0000"/>
     </g>
    </g>
    <g id="text_16">
     <!-- MD5 (streams) -->
     <g transform="translate(87.137685 346.292063) scale(0.1 -0.1)">
      <use xlink:href="#DejaVuSans-4d"/>
      <use xlink:href="#DejaVuSans-44" x="86.279297"/>
      <use xlink:href="#DejaVuSans-35" x="163.28125"/>
      <use xlink:href="#DejaVuSans-20" x="226.904297"/>
      <use xlink:href="#DejaVuSans-28" x="258.691406"/>
      <use xlink:href="#DejaVuSans-73" x="297.705078"/>
      <use xlink:href="#DejaVuSans-74" x="349.804688"/>
      <use xlink:href="#DejaVuSans-72" x="389.013672"/>
      <use xlink:href="#DejaVuSans-65" x="427.876953"/>
      <use xlink:href="#DejaVuSans-61" x="489.400391"/>
      <use xlink:href="#DejaVuSans-6d" x="550.679688"/>
      <use xlink:href="#DejaVuSans-73" x="648.091797"/>
      <use xlink:href="#DejaVuSans-29" x="700.191406"/>
     </g>
    </g>
    <g id="PathCollection_11">
     <g>
      <use xlink:href="#m74b31824bc" x="69.137685" y="358.345188" style="fill: #008000; stroke: #008000"/>
     </g>
    </g>
    <g id="text_17">
     <!-- SHA1 (streams) -->
     <g transform="translate(87.137685 360.970188) scale(0.1 -0.1)">
      <use xlink:href="#DejaVuSans-53"/>
      <use xlink:href="#DejaVuSans-48" x="63.476562"/>
      <use xlink:href="#DejaVuSans-41" x="138.671875"/>
      <use xlink:href="#DejaVuSans-31" x="207.080078"/>
      <use xlink:href="#DejaVuSans-20" x="270.703125"/>
      <use xlink:href="#DejaVuSans-28" x="302.490234"/>
      <use xlink:href="#DejaVuSans-73" x="341.503906"/>
      <use xlink:href="#DejaVuSans-74" x="393.603516"/>
      <use xlink:href="#DejaVuSans-72" x="432.8125"/>
      <use xlink:href="#DejaVuSans-65" x="471.675781"/>
      <use xlink:href="#DejaVuSans-61" x="533.199219"/>
      <use xlink:href="#DejaVuSans-6d" x="594.478516"/>
      <use xlink:href="#DejaVuSans-73" x="691.890625"/>
      <use xlink:href="#DejaVuSans-29" x="743.990234"/>
     </g>
    </g>
    <g id="PathCollection_12">
     <g>
      <use xlink:href="#m65f6fb8f1c" x="69.137685" y="373.023313" style="fill: #0000ff; stroke: #0000ff"/>
     </g>
    </g>
    <g id="text_18">
     <!-- SHA256 (streams) -->
     <g transform="translate(87.137685 375.648313) scale(0.1 -0.1)">
      <use xlink:href="#DejaVuSans-53"/>
      <use xlink:href="#DejaVuSans-48" x="63.476562"/>
      <use xlink:href="#DejaVuSans-41" x="138.671875"/>
      <use xlink:href="#DejaVuSans-32" x="207.080078"/>
      <use xlink:href="#DejaVuSans-35" x="270.703125"/>
      <use xlink:href="#DejaVuSans-36" x="334.326172"/>
      <use xlink:href="#DejaVuSans-20" x="397.949219"/>
      <use xlink:href="#DejaVuSans-28" x="429.736328"/>
      <use xlink:href="#DejaVuSans-73" x="468.75"/>
      <use xlink:href="#DejaVuSans-74" x="520.849609"/>
      <use xlink:href="#DejaVuSans-72" x="560.058594"/>
      <use xlink:href="#DejaVuSans-65" x="598.921875"/>
      <use xlink:href="#DejaVuSans-61" x="660.445312"/>
      <use xlink:href="#DejaVuSans-6d" x="721.724609"/>
      <use xlink:href="#DejaVuSans-73" x="819.136719"/>
      <use xlink:href="#DejaVuSans-29" x="871.236328"/>
     </g>
    </g>
   </g>
   <g id="legend_2">
    <g id="patch_8">
     <path d="M 57.137685 93.5925 
L 217.923622 93.5925 
Q 219.923622 93.5925 219.923622 91.5925 
L 219.923622 33.88 
Q 219.923622 31.88 217.923622 31.88 
L 57.137685 31.88 
Q 55.137685 31.88 55.137685 33.88 
L 55.137685 91.5925 
Q 55.137685 93.5925 57.137685 93.5925 
z
" style="fill: #ffffff; opacity: 0.8; stroke: #cccccc; stroke-linejoin: miter"/>
    </g>
    <g id="text_19">
     <!-- Hardware Limits -->
     <g transform="translate(96.80331 43.478438) scale(0.1 -0.1)">
      <defs>
       <path id="DejaVuSans-77" d="M 269 3500 
L 844 3500 
L 1563 769 
L 2278 3500 
L 2956 3500 
L 3675 769 
L 4391 3500 
L 4966 3500 
L 4050 0 
L 3372 0 
L 2619 2869 
L 1863 0 
L 1184 0 
L 269 3500 
z
" transform="scale(0.015625)"/>
       <path id="DejaVuSans-4c" d="M 628 4666 
L 1259 4666 
L 1259 531 
L 3531 531 
L 3531 0 
L 628 0 
L 628 4666 
z
" transform="scale(0.015625)"/>
      </defs>
      <use xlink:href="#DejaVuSans-48"/>
      <use xlink:href="#DejaVuSans-61" x="75.195312"/>
      <use xlink:href="#DejaVuSans-72" x="136.474609"/>
      <use xlink:href="#DejaVuSans-64" x="175.837891"/>
      <use xlink:href="#DejaVuSans-77" x="239.314453"/>
      <use xlink:href="#DejaVuSans-61" x="321.101562"/>
      <use xlink:href="#DejaVuSans-72" x="382.380859"/>
      <use xlink:href="#DejaVuSans-65" x="421.244141"/>
      <use xlink:href="#DejaVuSans-20" x="482.767578"/>
      <use xlink:href="#DejaVuSans-4c" x="514.554688"/>
      <use xlink:href="#DejaVuSans-69" x="570.267578"/>
      <use xlink:href="#DejaVuSans-6d" x="598.050781"/>
      <use xlink:href="#DejaVuSans-69" x="695.462891"/>
      <use xlink:href="#DejaVuSans-74" x="723.246094"/>
      <use xlink:href="#DejaVuSans-73" x="762.455078"/>
     </g>
    </g>
    <g id="line2d_119">
     <path d="M 59.137685 54.656563 
L 69.137685 54.656563 
L 79.137685 54.656563 
" style="fill: none; stroke: #000000; stroke-width: 2; stroke-linecap: square"/>
    </g>
    <g id="text_20">
     <!-- Roofline -->
     <g transform="translate(87.137685 58.156563) scale(0.1 -0.1)">
      <use xlink:href="#DejaVuSans-52"/>
      <use xlink:href="#DejaVuSans-6f" x="64.982422"/>
      <use xlink:href="#DejaVuSans-6f" x="126.164062"/>
      <use xlink:href="#DejaVuSans-66" x="187.345703"/>
      <use xlink:href="#DejaVuSans-6c" x="222.550781"/>
      <use xlink:href="#DejaVuSans-69" x="250.333984"/>
      <use xlink:href="#DejaVuSans-6e" x="278.117188"/>
      <use xlink:href="#DejaVuSans-65" x="341.496094"/>
     </g>
    </g>
    <g id="line2d_120">
     <path d="M 59.137685 69.334688 
L 69.137685 69.334688 
L 79.137685 69.334688 
" style="fill: none; stroke-dasharray: 5.55,2.4; stroke-dashoffset: 0; stroke: #ff0000; stroke-width: 1.5"/>
    </g>
    <g id="text_21">
     <!-- Peak Compute 1330 GIPS -->
     <g transform="translate(87.137685 72.834688) scale(0.1 -0.1)">
      <defs>
       <path id="DejaVuSans-6b" d="M 581 4863 
L 1159 4863 
L 1159 1991 
L 2875 3500 
L 3609 3500 
L 1753 1863 
L 3688 0 
L 2938 0 
L 1159 1709 
L 1159 0 
L 581 0 
L 581 4863 
z
" transform="scale(0.015625)"/>
       <path id="DejaVuSans-70" d="M 1159 525 
L 1159 -1331 
L 581 -1331 
L 581 3500 
L 1159 3500 
L 1159 2969 
Q 1341 3281 1617 3432 
Q 1894 3584 2278 3584 
Q 2916 3584 3314 3078 
Q 3713 2572 3713 1747 
Q 3713 922 3314 415 
Q 2916 -91 2278 -91 
Q 1894 -91 1617 61 
Q 1341 213 1159 525 
z
M 3116 1747 
Q 3116 2381 2855 2742 
Q 2594 3103 2138 3103 
Q 1681 3103 1420 2742 
Q 1159 2381 1159 1747 
Q 1159 1113 1420 752 
Q 1681 391 2138 391 
Q 2594 391 2855 752 
Q 3116 1113 3116 1747 
z
" transform="scale(0.015625)"/>
      </defs>
      <use xlink:href="#DejaVuSans-50"/>
      <use xlink:href="#DejaVuSans-65" x="56.677734"/>
      <use xlink:href="#DejaVuSans-61" x="118.201172"/>
      <use xlink:href="#DejaVuSans-6b" x="179.480469"/>
      <use xlink:href="#DejaVuSans-20" x="237.390625"/>
      <use xlink:href="#DejaVuSans-43" x="269.177734"/>
      <use xlink:href="#DejaVuSans-6f" x="339.001953"/>
      <use xlink:href="#DejaVuSans-6d" x="400.183594"/>
      <use xlink:href="#DejaVuSans-70" x="497.595703"/>
      <use xlink:href="#DejaVuSans-75" x="561.072266"/>
      <use xlink:href="#DejaVuSans-74" x="624.451172"/>
      <use xlink:href="#DejaVuSans-65" x="663.660156"/>
      <use xlink:href="#DejaVuSans-20" x="725.183594"/>
      <use xlink:href="#DejaVuSans-31" x="756.970703"/>
      <use xlink:href="#DejaVuSans-33" x="820.59375"/>
      <use xlink:href="#DejaVuSans-33" x="884.216797"/>
      <use xlink:href="#DejaVuSans-30" x="947.839844"/>
      <use xlink:href="#DejaVuSans-20" x="1011.462891"/>
      <use xlink:href="#DejaVuSans-47" x="1043.25"/>
      <use xlink:href="#DejaVuSans-49" x="1120.740234"/>
      <use xlink:href="#DejaVuSans-50" x="1150.232422"/>
      <use xlink:href="#DejaVuSans-53" x="1210.535156"/>
     </g>
    </g>
    <g id="line2d_121">
     <path d="M 59.137685 84.012813 
L 69.137685 84.012813 
L 79.137685 84.012813 
" style="fill: none; stroke-dasharray: 5.55,2.4; stroke-dashoffset: 0; stroke: #ffa500; stroke-width: 1.5"/>
    </g>
    <g id="text_22">
     <!-- Peak Bandwidth 128 GB/s -->
     <g transform="translate(87.137685 87.512813) scale(0.1 -0.1)">
      <defs>
       <path id="DejaVuSans-38" d="M 2034 2216 
Q 1584 2216 1326 1975 
Q 1069 1734 1069 1313 
Q 1069 891 1326 650 
Q 1584 409 2034 409 
Q 2484 409 2743 651 
Q 3003 894 3003 1313 
Q 3003 1734 2745 1975 
Q 2488 2216 2034 2216 
z
M 1403 2484 
Q 997 2584 770 2862 
Q 544 3141 544 3541 
Q 544 4100 942 4425 
Q 1341 4750 2034 4750 
Q 2731 4750 3128 4425 
Q 3525 4100 3525 3541 
Q 3525 3141 3298 2862 
Q 3072 2584 2669 2484 
Q 3125 2378 3379 2068 
Q 3634 1759 3634 1313 
Q 3634 634 3220 271 
Q 2806 -91 2034 -91 
Q 1263 -91 848 271 
Q 434 634 434 1313 
Q 434 1759 690 2068 
Q 947 2378 1403 2484 
z
M 1172 3481 
Q 1172 3119 1398 2916 
Q 1625 2713 2034 2713 
Q 2441 2713 2670 2916 
Q 2900 3119 2900 3481 
Q 2900 3844 2670 4047 
Q 2441 4250 2034 4250 
Q 1625 4250 1398 4047 
Q 1172 3844 1172 3481 
z
" transform="scale(0.015625)"/>
      </defs>
      <use xlink:href="#DejaVuSans-50"/>
      <use xlink:href="#DejaVuSans-65" x="56.677734"/>
      <use xlink:href="#DejaVuSans-61" x="118.201172"/>
      <use xlink:href="#DejaVuSans-6b" x="179.480469"/>
      <use xlink:href="#DejaVuSans-20" x="237.390625"/>
      <use xlink:href="#DejaVuSans-42" x="269.177734"/>
      <use xlink:href="#DejaVuSans-61" x="337.78125"/>
      <use xlink:href="#DejaVuSans-6e" x="399.060547"/>
      <use xlink:href="#DejaVuSans-64" x="462.439453"/>
      <use xlink:href="#DejaVuSans-77" x="525.916016"/>
      <use xlink:href="#DejaVuSans-69" x="607.703125"/>
      <use xlink:href="#DejaVuSans-64" x="635.486328"/>
      <use xlink:href="#DejaVuSans-74" x="698.962891"/>
      <use xlink:href="#DejaVuSans-68" x="738.171875"/>
      <use xlink:href="#DejaVuSans-20" x="801.550781"/>
      <use xlink:href="#DejaVuSans-31" x="833.337891"/>
      <use xlink:href="#DejaVuSans-32" x="896.960938"/>
      <use xlink:href="#DejaVuSans-38" x="960.583984"/>
      <use xlink:href="#DejaVuSans-20" x="1024.207031"/>
      <use xlink:href="#DejaVuSans-47" x="1055.994141"/>
      <use xlink:href="#DejaVuSans-42" x="1133.484375"/>
      <use xlink:href="#DejaVuSans-2f" x="1202.087891"/>
      <use xlink:href="#DejaVuSans-73" x="1235.779297"/>
     </g>
    </g>
   </g>
  </g>
 </g>
 <defs>
  <clipPath id="pc49fad8348">
   <rect x="50.137685" y="26.88" width="659.062315" height="359.848"/>
  </clipPath>
 </defs>
</svg>
